<?xml version="1.0" encoding="UTF-8" standalone="no"?>
<svg
   xmlns:dc="http://purl.org/dc/elements/1.1/"
   xmlns:cc="http://creativecommons.org/ns#"
   xmlns:rdf="http://www.w3.org/1999/02/22-rdf-syntax-ns#"
   xmlns:svg="http://www.w3.org/2000/svg"
   xmlns="http://www.w3.org/2000/svg"
   id="svg975"
   version="1.1"
   viewBox="0 0 160.06628 112.36542"
   height="112.36542mm"
   width="160.06628mm">
  <defs
     id="defs969" />
  <metadata
     id="metadata972">
    <rdf:RDF>
      <cc:Work
         rdf:about="">
        <dc:format>image/svg+xml</dc:format>
        <dc:type
           rdf:resource="http://purl.org/dc/dcmitype/StillImage" />
        <dc:title>vasilii.taneski.com</dc:title>
      </cc:Work>
    </rdf:RDF>
  </metadata>
  <g
     transform="translate(-29.466858,-92.317292)"
     id="layer1">
    <path
       d="m 46.132189,183.78186 c -0.39574,-0.19993 -0.7971,-0.74666 -0.99911,-1.36097 -0.30864,-0.9386 -0.28535,-1.10839 0.27117,-1.97702 0.33484,-0.52263 0.73691,-1.18836 0.89349,-1.4794 0.36807,-0.68414 1.68653,-0.88286 1.68653,-0.25421 0,0.24332 -0.29766,0.79614 -0.66146,1.2285 -0.3638,0.43235 -0.66966,0.92579 -0.67969,1.09653 -0.01,0.17073 -0.0607,0.63065 -0.11253,1.02204 -0.0527,0.39788 0.0719,0.84957 0.28281,1.02457 0.39579,0.32848 0.51908,1.04473 0.17868,1.03804 -0.10914,-0.002 -0.49609,-0.15428 -0.85989,-0.33808 z m -5.37862,4.66475 c -0.0861,-0.0861 0.0365,-0.52839 0.27244,-0.98288 0.23912,-0.46063 0.47865,-0.67925 0.54122,-0.49397 0.16236,0.48082 0.59621,0.12529 0.59621,-0.48859 0,-1.00561 -0.7978,-0.89746 -1.84705,0.2504 -1.04657,1.14493 -1.86262,1.42443 -1.84937,0.63342 0.01,-0.59763 1.40214,-2.12839 2.21759,-2.43842 0.83299,-0.3167 1.70742,-2.75718 1.25022,-3.48927 -0.42775,-0.68494 -0.37435,-0.81115 0.21069,-0.49805 0.69451,0.37169 0.8855,1.10975 0.52404,2.02516 -0.1656,0.41941 -0.28153,1.50299 -0.25761,2.40798 0.0239,0.90498 -0.0845,1.88451 -0.24087,2.17674 -0.31796,0.59411 -1.17699,1.138 -1.41751,0.89748 z m 4.33462,2.11333 c -0.30198,-0.21152 -0.77618,-0.3125 -1.05376,-0.22439 -0.42854,0.13601 -0.35825,-0.12647 0.46579,-1.7393 0.67727,-1.32555 0.87122,-1.93489 0.64189,-2.01666 -0.24616,-0.0878 -0.25661,-0.25173 -0.0416,-0.65342 0.42855,-0.80076 -0.0868,-1.20738 -0.94693,-0.74707 -0.82054,0.43914 -1.2158,0.14162 -0.51559,-0.38812 0.72158,-0.54591 1.10305,-0.49486 1.84479,0.24688 0.83741,0.83741 0.82769,1.79806 -0.0346,3.41789 -0.48394,0.90908 -0.6016,1.36743 -0.40222,1.56682 0.36148,0.36148 1.52189,-0.19927 2.33353,-1.12764 0.62898,-0.71944 0.80802,-0.3553 0.29703,0.60412 -0.63015,1.18315 -1.7553,1.64433 -2.58828,1.06089 z m 0.51483,1.61808 c 0,-0.22687 0.121,-0.33771 0.2689,-0.2463 0.14789,0.0914 0.2004,0.27702 0.11667,0.41249 -0.22681,0.36698 -0.38557,0.29855 -0.38557,-0.16619 z m 2.02847,1.02985 c -0.27447,-0.27447 -0.20739,-1.14653 0.0882,-1.14653 0.14552,0 0.26458,0.29766 0.26458,0.66146 0,0.69269 -0.0611,0.77673 -0.35278,0.48507 z m -2.07808,0.26023 c 0.19099,-0.0764 0.4192,-0.067 0.50712,0.0209 0.0879,0.0879 -0.0683,0.15045 -0.34727,0.13896 -0.30822,-0.0127 -0.37092,-0.0754 -0.15985,-0.15985 z m -2.949,1.32727 c -0.097,-0.097 -0.17277,-0.36491 -0.16835,-0.59532 0.007,-0.34403 0.0582,-0.3326 0.28884,0.064 0.2849,0.48992 0.2023,0.85416 -0.12049,0.53137 z m 3.79236,0.44097 c -0.61576,-0.1972 -0.6214,-0.21366 -0.0818,-0.23821 0.31883,-0.0145 0.65328,0.0927 0.74322,0.23821 0.0899,0.14552 0.12673,0.25271 0.0818,0.23821 -0.045,-0.0145 -0.37942,-0.1217 -0.74322,-0.23821 z m -3.25166,3.70417 c 0.0761,-0.29105 0.17013,-0.52917 0.20895,-0.52917 0.0388,0 0.13285,0.23812 0.20896,0.52917 0.0865,0.33071 0.008,0.52916 -0.20896,0.52916 -0.21707,0 -0.29544,-0.19845 -0.20895,-0.52916 z m -2.08962,0.34842 c 0.191,-0.0764 0.4192,-0.067 0.50712,0.0209 0.0879,0.0879 -0.0683,0.15045 -0.34726,0.13897 -0.30823,-0.0127 -0.37092,-0.0754 -0.15986,-0.15985 z m 4.41524,0.18074 c -0.74493,-0.18955 -0.72459,-0.2039 0.33073,-0.23328 1.0985,-0.0306 1.12448,-0.0523 1.12448,-0.93977 0,-0.73335 -0.11475,-0.92952 -0.59532,-1.01772 -0.51798,-0.0951 -0.50939,-0.10593 0.0661,-0.0837 0.5171,0.0199 0.67973,0.18433 0.74518,0.75314 0.17401,1.51229 0.55981,0.6425 0.64547,-1.45521 l 0.0891,-2.18281 0.0539,2.43809 c 0.048,2.171 -0.002,2.46808 -0.45791,2.71198 -0.56732,0.30361 -0.84017,0.30488 -2.00177,0.009 z m 12.99948,-33.10828 c -0.23301,-0.53404 -0.39725,-0.70384 -0.41019,-0.42406 -0.0215,0.46477 0.53906,1.57448 0.70932,1.40421 0.0492,-0.0492 -0.0854,-0.49028 -0.29913,-0.98015 z m 0.12969,2.76719 c -0.2306,-0.39655 -0.28223,-0.40798 -0.28884,-0.0639 -0.009,0.44559 0.26967,0.84677 0.45718,0.65926 0.0618,-0.0618 -0.0139,-0.32974 -0.16834,-0.59531 z"
       style="fill:#a8071e;fill-opacity:0.80000001;stroke-width:0.26458332"
       id="path1643" />
    <path
       d="m 179.34988,104.17245 c -0.29103,-0.16256 -0.57095,-0.32971 -0.62203,-0.37145 -0.0511,-0.0417 0.21272,-0.47654 0.58621,-0.96621 l 0.67908,-0.89031 -0.65235,-1.28858 c -0.97025,-1.916457 -0.88453,-2.084067 0.70871,-1.385807 0.98103,0.42995 1.49466,0.853297 1.83956,1.516197 0.26318,0.50583 0.62384,1.08558 0.80146,1.28833 0.26268,0.29986 0.11883,0.55905 -0.77099,1.38906 -1.13687,1.06046 -1.67449,1.20875 -2.56965,0.70877 z m 8.6599,3.07139 c -0.152,-0.284 -0.214,-0.84252 -0.1378,-1.24115 0.11668,-0.61036 0.0477,-0.72479 -0.43707,-0.72479 -0.31659,0 -0.50205,-0.11906 -0.41211,-0.26458 0.33029,-0.53441 1.35942,-0.25954 1.93301,0.51628 l 0.57733,0.78086 -0.62351,0.72487 c -0.59795,0.69514 -0.63483,0.70369 -0.89985,0.20851 z m -1.45629,1.94926 c 0.75705,-0.75705 1.45103,-1.30188 1.54219,-1.21073 0.24971,0.24971 -2.0022,2.5872 -2.49249,2.5872 -0.27007,0 0.078,-0.5042 0.9503,-1.37647 z m -13.15673,3.76124 c -0.21827,-0.12647 -0.60524,-0.29432 -0.8599,-0.37301 -0.65969,-0.20386 -0.57231,-0.60406 0.1727,-0.79104 0.34964,-0.0878 1.15942,-0.66622 1.7995,-1.28546 1.62268,-1.56984 3.00598,-2.58111 3.53068,-2.58111 0.39968,0 0.40559,0.0606 0.0581,0.59532 -0.46686,0.71841 -0.81936,1.39023 -1.28414,2.44739 -0.81826,1.8612 -2.22402,2.67903 -3.41693,1.98791 z m 3.70417,5.42555 c 0,-0.16681 0.84896,-1.14849 2.04919,-2.36952 0.57966,-0.58972 1.39039,-2.48069 1.39039,-3.243 0,-0.26103 -0.16704,-0.32842 -0.52916,-0.21349 -0.37554,0.11919 -0.52917,0.0476 -0.52917,-0.24675 0,-0.5431 -0.15685,-0.52445 -1.24492,0.14801 -0.70245,0.43415 -0.98162,0.49086 -1.22184,0.24822 -0.23941,-0.24181 -0.0973,-0.49287 0.61468,-1.08624 1.56149,-1.30132 2.09442,-1.2793 2.76858,0.11439 0.095,0.19636 0.19613,0.17399 0.30624,-0.0677 0.12116,-0.26598 0.31805,-0.16824 0.74843,0.3715 l 0.58402,0.73242 -0.87059,1.2937 c -1.21475,1.80509 -1.85519,2.59183 -2.11956,2.60372 -0.12457,0.006 -0.46462,0.38418 -0.75567,0.84128 -0.48627,0.76374 -1.19062,1.28047 -1.19062,0.8735 z m -3.175,0.92105 c 0,-0.14553 0.12609,-0.26459 0.28019,-0.26459 0.15411,0 0.20663,0.11906 0.11668,0.26459 -0.0899,0.14552 -0.21603,0.26458 -0.2802,0.26458 -0.0642,0 -0.11667,-0.11906 -0.11667,-0.26458 z m 12.01653,2.6102 c -0.11484,-0.18582 -0.0679,-0.37538 0.10746,-0.43384 0.1713,-0.0571 0.31144,-0.48637 0.31144,-0.95395 0,-0.75223 0.0831,-0.84872 0.72127,-0.83784 0.86253,0.0147 1.43946,1.18123 0.96167,1.94448 -0.34027,0.54357 -1.81753,0.74117 -2.10184,0.28115 z m -2.35128,0.49864 c -0.0592,-0.1819 -0.17027,-1.40229 -0.2467,-2.71198 -0.0764,-1.30969 -0.1433,-2.4249 -0.14855,-2.47825 -0.005,-0.0534 -0.24,-0.0368 -0.52163,0.0369 -0.66164,0.17302 -1.62686,-0.50012 -1.43479,-1.00063 0.11366,-0.29616 0.2682,-0.32027 0.67105,-0.10467 0.77851,0.41664 1.35082,0.10271 1.12887,-0.61923 -0.26121,-0.84974 -0.31738,-0.86963 -0.91891,-0.32525 l -0.53989,0.48861 0.53246,-1.17374 c 0.36588,-0.80649 0.5343,-1.74536 0.53829,-3.00068 0.006,-1.7784 0.0192,-1.81485 0.50884,-1.37171 0.48654,0.44031 0.62891,1.07095 0.9237,4.09166 0.0763,0.78219 0.21003,1.4934 0.29707,1.58045 0.0871,0.0871 0.47896,-0.0246 0.87089,-0.24821 0.58747,-0.33511 0.70701,-0.58108 0.68077,-1.40065 l -0.0318,-0.99415 0.88333,0.87853 c 0.88216,0.87736 1.22649,1.9132 0.54966,1.65347 -0.19274,-0.074 -0.90712,0.10414 -1.5875,0.39578 l -1.23704,0.53026 -0.003,2.05992 c -0.002,1.13296 -0.0767,2.50641 -0.16691,3.05212 -0.16146,0.97683 -0.53732,1.30908 -0.74826,0.66145 z m -0.0886,2.24896 c 0.0444,-0.69123 0.19971,-1.25677 0.34522,-1.25677 0.14552,0 0.30087,0.56554 0.34522,1.25677 0.065,1.01217 -0.002,1.25677 -0.34522,1.25677 -0.34298,0 -0.41016,-0.2446 -0.34522,-1.25677 z m -19.47207,9.03552 c -0.0942,-0.24539 -0.11168,-0.50569 -0.0389,-0.57845 0.0728,-0.0728 0.20933,0.0685 0.30349,0.31387 0.0942,0.24538 0.11168,0.50568 0.0389,0.57844 -0.0728,0.0728 -0.20935,-0.0685 -0.30351,-0.31386 z m 0.52465,2.04634 c -0.11396,-0.18441 -0.13577,-0.40675 -0.0484,-0.49408 0.23679,-0.2368 0.49498,0.11146 0.36708,0.49515 -0.0896,0.26886 -0.15193,0.26865 -0.31864,-0.001 z"
       style="fill:#a8071e;fill-opacity:0.80000001;stroke-width:0.26458332"
       id="path1557" />
    <path
       d="m 110.95509,92.577853 c 0,-0.14552 0.56555,-0.26276 1.25677,-0.26053 0.90897,0.003 1.14694,0.075 0.8599,0.26053 -0.5231,0.33805 -2.11667,0.33805 -2.11667,0 z m -3.328,2.67937 c 0.46071,-0.74546 3.6382,-1.79029 6.29194,-2.06893 1.4545,-0.15273 3.22077,0.33669 3.028,0.83903 -0.0714,0.18597 -0.005,0.46327 0.14833,0.61622 0.19439,0.19439 -0.55705,0.27938 -2.49681,0.28239 -1.5262,0.002 -3.08939,0.0832 -3.47376,0.17971 -0.45028,0.11302 -0.69886,0.0678 -0.69886,-0.12717 0,-0.20209 -0.15376,-0.22384 -0.46303,-0.0655 -0.62438,0.31971 -2.49064,0.59474 -2.33581,0.34423 z m -4.02023,0.71223 c 0.13941,-0.41822 2.08901,-0.79101 2.43155,-0.46495 0.27611,0.26283 -0.0325,0.39252 -1.52724,0.64181 -0.77797,0.12975 -0.99252,0.0878 -0.90431,-0.17686 z m 7.34823,0.73202 c 0,-0.48671 3.85695,-0.90167 4.29638,-0.46224 0.43492,0.434921 -0.87384,0.83654 -2.7261,0.83654 -1.17732,0 -1.57028,-0.0937 -1.57028,-0.3743 z m -2.23765,0.39258 c -0.1805,-0.29205 0.006,-0.41512 0.98088,-0.6482 0.43153,-0.10315 0.72761,-0.0642 0.72761,0.0957 0,0.14829 -0.1786,0.26962 -0.39688,0.26962 -0.21828,0 -0.39687,0.11907 -0.39687,0.26459 0,0.33373 -0.711,0.34794 -0.91474,0.0183 z m -9.271711,-0.29734 c 0.582081,-0.275449 1.355991,-0.49471 1.719791,-0.48725 0.48378,0.01 0.30609,0.1447 -0.66146,0.50172 -1.724971,0.63652 -2.414111,0.62709 -1.058331,-0.0145 z m 5.027081,1.07281 c -0.0899,-0.145519 -0.0374,-0.26459 0.11668,-0.26459 0.15411,0 0.2802,0.119071 0.2802,0.26459 0,0.14552 -0.0525,0.26458 -0.11668,0.26458 -0.0642,0 -0.19026,-0.11906 -0.2802,-0.26458 z m -1.19062,1.28732 c 0.80036,-0.289349 2.16958,-0.63893 3.0427,-0.77684 0.87313,-0.13792 1.88516,-0.31083 2.24896,-0.38425 0.46553,-0.094 0.5439,-0.0638 0.26459,0.1018 -0.21829,0.12941 -0.99219,0.31629 -1.7198,0.415271 -0.7276,0.099 -2.008,0.411449 -2.84532,0.694369 -1.99803,0.67512 -2.87463,0.630581 -0.99113,-0.0504 z m -15.213551,2.681427 c 0.0899,-0.14552 0.21603,-0.26459 0.2802,-0.26459 0.0642,0 0.11668,0.11907 0.11668,0.26459 0,0.14552 -0.12609,0.26458 -0.2802,0.26458 -0.15411,0 -0.20661,-0.11906 -0.11668,-0.26458 z m 52.519781,2.36568 c 0,-0.15411 0.11907,-0.20661 0.26459,-0.11668 0.14553,0.0899 0.26459,0.21603 0.26459,0.2802 0,0.0642 -0.11906,0.11668 -0.26459,0.11668 -0.14552,0 -0.26459,-0.12609 -0.26459,-0.2802 z m -56.620821,0.15604 c 0,-0.13538 2.84077,-1.99251 3.04785,-1.99251 0.46732,0 -0.0772,0.54122 -1.27477,1.26702 -1.34906,0.81761 -1.77308,0.99111 -1.77308,0.72549 z m 58.472911,1.0502 c -0.18374,-0.22139 -0.21238,-0.39687 -0.0648,-0.39687 0.14552,0 0.4128,0.17859 0.59395,0.39687 0.18374,0.22139 0.21239,0.39688 0.0648,0.39688 -0.14552,0 -0.4128,-0.1786 -0.59396,-0.39688 z m 2.28557,1.5875 c -0.0838,-0.21828 -0.0299,-0.39687 0.11961,-0.39687 0.14954,0 0.18693,-0.13746 0.0831,-0.30547 -0.1091,-0.17653 -0.0733,-0.23411 0.0847,-0.13641 0.15044,0.093 0.33629,0.40903 0.41299,0.70234 0.16378,0.62628 -0.46543,0.74883 -0.70043,0.13641 z m -61.919921,2.03159 c -0.19345,-0.31301 0.50882,-0.92621 0.90826,-0.79307 0.17368,0.0579 0.0799,0.2915 -0.22942,0.57142 -0.29312,0.26527 -0.59164,0.36274 -0.67884,0.22165 z m -1.61668,1.01112 c 0.0899,-0.14552 0.27556,-0.26458 0.41249,-0.26458 0.13693,0 0.24897,0.11906 0.24897,0.26458 0,0.14552 -0.18563,0.26458 -0.4125,0.26458 -0.22687,0 -0.3389,-0.11906 -0.24896,-0.26458 z m 12.56938,1.40402 c 8e-4,-0.11737 0.35811,-0.41622 0.79375,-0.66411 0.43564,-0.24789 0.79208,-0.36286 0.79208,-0.25549 0,0.10738 -0.35719,0.40623 -0.79375,0.66412 -0.43657,0.25788 -0.793,0.37285 -0.79208,0.25548 z m -21.69751,0.0713 c 0,-0.22935 -0.11906,-0.417 -0.26458,-0.417 -0.49581,0 -0.2663,-0.81609 0.42351,-1.50589 0.54436,-0.54436 0.73479,-0.61254 0.91166,-0.32637 0.24445,0.39553 0.29762,0.36536 0.73443,-0.4167 0.39885,-0.7141 0.41883,0.0268 0.0293,1.085 -0.34757,0.94419 -1.83428,2.22557 -1.83428,1.58096 z m 24.07709,0.90592 c 0.51815,-0.33486 0.86841,-0.33486 0.66145,0 -0.0899,0.14552 -0.36485,0.26276 -0.61092,0.26053 -0.38557,-0.003 -0.39256,-0.0395 -0.0505,-0.26053 z m -7.14375,0.14791 c 0,-0.22687 0.11906,-0.41249 0.26458,-0.41249 0.14552,0 0.26458,0.11203 0.26458,0.24896 0,0.13694 -0.11906,0.32256 -0.26458,0.41249 -0.14552,0.0899 -0.26458,-0.0221 -0.26458,-0.24896 z m 5.87044,0.6293 c 0.0637,-0.19099 0.27202,-0.39935 0.46302,-0.46302 0.19844,-0.0661 0.29765,0.0331 0.23151,0.23151 -0.0637,0.191 -0.27203,0.39936 -0.46302,0.46302 -0.19844,0.0661 -0.29766,-0.0331 -0.23151,-0.23151 z m -1.7694,0.81029 c 0.0899,-0.14552 0.21602,-0.26458 0.2802,-0.26458 0.0642,0 0.11667,0.11906 0.11667,0.26458 0,0.14552 -0.12609,0.26458 -0.2802,0.26458 -0.15411,0 -0.20661,-0.11906 -0.11667,-0.26458 z m -20.55754,0.39687 c 0.34348,-0.6472 1.11311,-1.44124 4.31532,-4.45217 1.36614,-1.28453 2.60295,-2.45568 2.74847,-2.60254 1.05614,-1.06594 1.48236,-1.39456 2.71198,-2.09106 0.76398,-0.43274 1.38906,-0.66839 1.38906,-0.52366 0,0.14472 -0.33289,0.43528 -0.73974,0.64567 -0.40687,0.2104 -2.57114,2.17668 -4.80951,4.36952 -2.23836,2.19284 -4.12964,3.92709 -4.20285,3.85389 -0.0732,-0.0732 -0.4842,0.19599 -0.91333,0.59821 -0.57501,0.53895 -0.70637,0.59212 -0.4994,0.20214 z m 4.0201,0.001 c 0.34123,-0.36323 0.66957,-0.61128 0.72963,-0.55122 0.13033,0.13034 -0.91528,1.21163 -1.17165,1.21163 -0.0981,0 0.10078,-0.29719 0.44202,-0.66041 z m -1.32194,1.61885 c 0,-0.0549 0.20836,-0.2633 0.46302,-0.46302 0.41965,-0.32911 0.42901,-0.31975 0.0999,0.0999 -0.34564,0.44073 -0.56291,0.58089 -0.56291,0.36313 z m 0.96265,2.34903 c 0.0838,-0.21828 0.2732,-0.39687 0.42097,-0.39687 0.15487,0 0.12915,0.16812 -0.0607,0.39687 -0.18116,0.21829 -0.3706,0.39688 -0.42097,0.39688 -0.0504,0 -0.023,-0.17859 0.0607,-0.39688 z m -6.78348,0.83475 c 0,-0.19573 0.23827,-0.5715 0.52949,-0.83505 0.52547,-0.47554 0.52633,-0.47284 0.11291,0.35587 -0.44859,0.89922 -0.6424,1.04379 -0.6424,0.47918 z m 4.72519,1.63968 c 0.12107,-0.32731 0.36916,-0.64477 0.55129,-0.70548 0.25479,-0.0849 0.26389,0.0153 0.0395,0.43465 -0.42616,0.79628 -0.85844,0.99445 -0.59075,0.27083 z m 66.447711,9.56411 c -0.16909,-0.31597 -0.24792,-0.63402 -0.17516,-0.70678 0.0728,-0.0728 0.27065,0.12622 0.43975,0.44219 0.1691,0.31597 0.24792,0.63402 0.17516,0.70678 -0.0728,0.0728 -0.27064,-0.12623 -0.43975,-0.44219 z m 1.05834,2.63021 c 0,-0.15411 0.11906,-0.20661 0.26459,-0.11667 0.14551,0.0899 0.26457,0.21602 0.26457,0.2802 0,0.0642 -0.11906,0.11667 -0.26457,0.11667 -0.14553,0 -0.26459,-0.12609 -0.26459,-0.2802 z m 0.79375,2.11667 c 0,-0.15411 0.11906,-0.20661 0.26459,-0.11668 0.14551,0.0899 0.26457,0.21603 0.26457,0.2802 0,0.0642 -0.11906,0.11668 -0.26457,0.11668 -0.14553,0 -0.26459,-0.12609 -0.26459,-0.2802 z m 0.55005,1.44878 c 0.0127,-0.30823 0.0754,-0.37092 0.15986,-0.15986 0.0764,0.191 0.067,0.4192 -0.0209,0.50712 -0.0879,0.0879 -0.15045,-0.0683 -0.13897,-0.34726 z m 1.03745,4.78454 c 0,-0.3638 0.0456,-0.66146 0.10144,-0.66146 0.0558,0 0.15835,0.29766 0.2279,0.66146 0.0695,0.36381 0.0239,0.66146 -0.10144,0.66146 -0.12535,0 -0.2279,-0.29765 -0.2279,-0.66146 z m 0.26459,1.5875 c 0,-0.52449 0.11621,-0.67788 0.46301,-0.61109 0.25466,0.049 0.46302,0.32404 0.46302,0.61109 0,0.28706 -0.20836,0.56205 -0.46302,0.61109 -0.3468,0.0668 -0.46301,-0.0866 -0.46301,-0.61109 z m 1.98739,3.63802 c -0.0972,-1.2733 -0.23501,-2.52346 -0.30617,-2.77812 -0.0712,-0.25466 -0.0118,-0.46302 0.13198,-0.46302 0.14374,0 0.33308,0.80367 0.42076,1.78594 0.0877,0.98226 0.2049,2.23242 0.26047,2.77812 0.0556,0.5457 0.004,0.99219 -0.11461,0.99219 -0.11861,0 -0.2952,-1.0418 -0.39243,-2.31511 z M 79.464379,164.1414 c -0.18408,-0.22179 -0.28345,-0.4545 -0.22082,-0.51713 0.0626,-0.0626 0.2592,0.11885 0.43682,0.40327 0.38413,0.61508 0.25602,0.68262 -0.216,0.11386 z m -2.8777,5.81802 c -0.45164,-0.51438 -0.82116,-0.99063 -0.82116,-1.05833 0,-0.29683 0.27494,-0.0539 1.05833,0.93525 1.03665,1.30888 0.8768,1.39184 -0.23717,0.12308 z m 58.710091,5.82292 c 0,-0.0509 0.69298,-1.02266 1.53996,-2.1594 3.04705,-4.08953 6.16855,-10.07403 6.66723,-12.78243 0.12058,-0.65485 0.43083,-2.20266 0.68945,-3.43959 0.36149,-1.72897 0.4715,-3.51493 0.47579,-7.72436 0.003,-3.01148 0.0257,-5.45226 0.0502,-5.42396 0.0481,0.0554 0.22438,1.17807 0.60725,3.86737 0.3261,2.29042 -0.56838,10.30589 -1.41585,12.68766 -0.22658,0.63676 -0.41196,1.44752 -0.41196,1.8017 0,0.55533 -1.5285,4.17328 -2.43846,5.7718 -0.16567,0.29104 -0.42916,0.76729 -0.58552,1.05834 -0.27299,0.50809 -1.12908,1.78821 -3.26061,4.87563 -0.54529,0.78983 -1.1998,1.46391 -1.45446,1.49795 -0.25466,0.034 -0.46302,0.0202 -0.46302,-0.0307 z m -1.05834,1.46233 c 0,-0.14552 0.11907,-0.26458 0.26459,-0.26458 0.14552,0 0.26458,0.11906 0.26458,0.26458 0,0.14552 -0.11906,0.26459 -0.26458,0.26459 -0.14552,0 -0.26459,-0.11907 -0.26459,-0.26459 z m -1.85208,1.5875 c 0,-0.14552 0.1786,-0.26458 0.39688,-0.26458 0.21828,0 0.39687,-0.11906 0.39687,-0.26458 0,-0.14552 0.13752,-0.26459 0.30559,-0.26459 0.1733,0 0.0983,0.22908 -0.1733,0.52917 -0.5173,0.57162 -0.92604,0.6884 -0.92604,0.26458 z m -1.09517,1.5787 c 0.55792,-0.46479 1.35975,-0.70506 1.35975,-0.40745 0,0.13206 -1.59431,0.94957 -1.82658,0.93662 -0.0868,-0.005 0.12329,-0.24297 0.46683,-0.52917 z m -3.4733,2.88639 c 0.17948,-0.18082 0.39297,-0.26212 0.47443,-0.18065 0.0815,0.0815 -0.0654,0.2294 -0.32632,0.32876 -0.37708,0.14359 -0.40747,0.1132 -0.14811,-0.14811 z m -2.84252,2.54957 c 0.52047,-0.62713 2.12932,-1.53797 2.33168,-1.32007 0.10149,0.10928 0.0396,0.25054 -0.1375,0.31391 -0.17711,0.0634 -0.74794,0.40425 -1.26852,0.75752 -1.08055,0.73328 -1.39883,0.81878 -0.92566,0.24864 z m 15.48077,6.74368 c 0.0899,-0.14552 0.28259,-0.26459 0.42811,-0.26459 0.14552,0 0.191,0.11907 0.10106,0.26459 -0.0899,0.14552 -0.28258,0.26458 -0.4281,0.26458 -0.14552,0 -0.191,-0.11906 -0.10107,-0.26458 z m -23.01875,3.175 c 0.0899,-0.14552 0.36487,-0.26276 0.61094,-0.26054 0.38557,0.003 0.39256,0.0395 0.0505,0.26054 -0.51815,0.33485 -0.86841,0.33485 -0.66146,0 z M 97.329059,105.80718 c 0.34892,-0.14994 0.39398,-0.23235 0.13229,-0.24194 -0.21828,-0.008 -0.57547,0.10087 -0.79375,0.24194 -0.48365,0.31255 -0.0659,0.31255 0.66146,0 z m -3.62351,1.81701 c 1.44573,-0.65666 2.67951,-1.5525 2.13784,-1.55228 -0.20153,8e-5 -1.14032,0.47626 -2.0862,1.05818 -1.91062,1.17544 -1.92851,1.34658 -0.0516,0.4941 z m 44.829031,4.85746 c -3.71825,-3.466 -7.87316,-6.05553 -9.187,-5.72578 -0.33548,0.0842 -1.60039,-0.32713 -3.19032,-1.03745 -1.44895,-0.64733 -3.28929,-1.3242 -4.08966,-1.50415 -0.80036,-0.17995 -2.06884,-0.49048 -2.81885,-0.69006 -1.25923,-0.33509 -7.4964,-0.53575 -7.19203,-0.23138 0.0723,0.0723 1.13395,0.2332 2.3592,0.35753 1.48519,0.1507 2.72126,0.45963 3.70846,0.92685 1.0304,0.48766 1.91555,0.70127 2.91042,0.70233 0.8399,8e-4 2.412,0.3145 3.81093,0.76021 1.30968,0.41727 2.78154,0.8457 3.27079,0.95205 0.48925,0.10635 1.73941,0.75736 2.77813,1.4467 2.15195,1.42813 4.43335,2.82211 5.58596,3.41313 0.43283,0.22194 1.38044,0.85271 2.10577,1.40171 0.72535,0.54899 1.37614,0.94085 1.4462,0.87079 0.0701,-0.0701 -0.60403,-0.80917 -1.498,-1.64248 z m 4.69968,4.20584 c 0,-0.33834 -0.77798,-0.93012 -0.97014,-0.73795 -0.19216,0.19216 0.39962,0.97014 0.73795,0.97014 0.12771,0 0.23219,-0.10449 0.23219,-0.23219 z m -6.15443,1.09496 c -0.82462,-0.82462 -1.57871,-1.41991 -1.67575,-1.32286 -0.097,0.097 0.52245,0.82692 1.37666,1.62195 0.8542,0.79503 1.60829,1.39032 1.67575,1.32286 0.0675,-0.0674 -0.55204,-0.79733 -1.37666,-1.62195 z m 3.50859,3.50285 c -0.18699,-0.22531 -0.39952,-0.35013 -0.47228,-0.27737 -0.0728,0.0728 0.0207,0.31664 0.20771,0.54195 0.18699,0.22532 0.39951,0.35013 0.47227,0.27737 0.0728,-0.0728 -0.0207,-0.31664 -0.2077,-0.54195 z m 11.20381,0.78234 c -0.0862,-0.22456 -0.21341,-0.35154 -0.28278,-0.28219 -0.0693,0.0694 -0.0476,0.25309 0.0483,0.40829 0.2609,0.42213 0.41338,0.34012 0.23448,-0.1261 z m -71.793381,3.96454 c 0,-0.22686 -0.11906,-0.3389 -0.26458,-0.24896 -0.14552,0.0899 -0.26458,0.27556 -0.26458,0.41249 0,0.13693 0.11906,0.24897 0.26458,0.24897 0.14552,0 0.26458,-0.18563 0.26458,-0.4125 z m -15.92791,2.47625 c 0.40526,-0.40527 0.41385,-1.08164 0.012,-0.9477 -0.35344,0.11782 -0.83651,1.2652 -0.53268,1.2652 0.11173,0 0.34602,-0.14288 0.52065,-0.3175 z m 11.00588,-1.30606 c 0.56709,-0.85901 0.96579,-1.62713 0.88599,-1.70693 -0.20166,-0.20166 -2.59873,3.59038 -2.56298,4.0545 0.009,0.11111 0.15738,-0.0202 0.33073,-0.29185 0.17334,-0.27164 0.77916,-1.19671 1.34626,-2.05572 z m -9.18473,7.65936 c -0.0845,-0.21106 -0.14715,-0.14837 -0.15985,0.15986 -0.0115,0.27891 0.0511,0.43518 0.13897,0.34726 0.0879,-0.0879 0.0973,-0.31612 0.0209,-0.50712 z m -0.7471,2.16628 c 0,-0.25016 -0.0841,-0.20125 -0.22739,0.13229 -0.12506,0.29104 -0.22739,0.70776 -0.22739,0.92604 0,0.25016 0.0841,0.20125 0.22739,-0.13229 0.12507,-0.29104 0.22739,-0.70776 0.22739,-0.92604 z m 0.31983,18.43305 c -0.33577,-0.33577 -0.40015,1.08041 -0.0842,1.85208 0.14653,0.35788 0.22046,0.21599 0.28264,-0.54239 0.0463,-0.56488 -0.043,-1.15424 -0.19844,-1.30969 z m 8.97778,2.35236 c 0,-0.0642 -0.11906,-0.19027 -0.26458,-0.2802 -0.14552,-0.0899 -0.26458,-0.0374 -0.26458,0.11667 0,0.15411 0.11906,0.2802 0.26458,0.2802 0.14552,0 0.26458,-0.0525 0.26458,-0.11667 z m 1.18719,2.49127 c -0.23785,-0.45995 -0.49146,-0.77727 -0.56357,-0.70516 -0.0721,0.0721 -0.0125,0.35107 0.13248,0.6199 0.14499,0.26883 0.34569,0.72691 0.44602,1.01795 0.10391,0.30146 0.233,0.39457 0.29996,0.21638 0.0647,-0.17204 -0.077,-0.68912 -0.31489,-1.14907 z m 63.663961,21.10111 c 0.25419,-0.49121 0.16715,-0.45995 -0.52311,0.18785 -0.95924,0.90024 -1.0365,1.07287 -0.30494,0.68135 0.28771,-0.15397 0.66032,-0.54512 0.82805,-0.8692 z m 11.90717,0.38902 c 0.3082,-0.4806 0.49935,-0.93483 0.42478,-1.0094 -0.1678,-0.16781 -2.30653,2.78599 -2.30471,3.18305 0.002,0.33057 1.05555,-0.88816 1.87993,-2.17365 z m -14.44894,1.79985 c 0.26339,-0.29104 0.41936,-0.52916 0.3466,-0.52916 -0.0728,0 -0.3478,0.23812 -0.61119,0.52916 -0.26339,0.29105 -0.41936,0.52917 -0.3466,0.52917 0.0728,0 0.3478,-0.23812 0.61119,-0.52917 z m -1.00104,-3.0736 c -0.0946,-0.0946 -0.60319,0.29041 -1.13026,0.85551 -0.52707,0.56511 -1.30495,1.39748 -1.72861,1.84972 -0.42367,0.45224 -0.7703,0.92421 -0.7703,1.04882 0,0.12461 0.85525,-0.63038 1.90056,-1.67777 1.04531,-1.04738 1.82319,-1.9817 1.72861,-2.07628 z m 1.5302,6.2486 c 0.0899,-0.14551 0.0445,-0.26458 -0.10106,-0.26458 -0.14552,0 -0.33817,0.11907 -0.4281,0.26458 -0.0899,0.14552 -0.0445,0.26459 0.10106,0.26459 0.14552,0 0.33817,-0.11907 0.4281,-0.26459 z m -15.09413,17.74794 c 0.0901,-0.14572 0.60604,-0.34622 1.14664,-0.44556 0.5406,-0.0993 2.03492,-0.58021 3.32071,-1.06858 1.28579,-0.48838 2.57469,-0.88796 2.86423,-0.88796 0.87212,0 7.73538,-3.39553 9.46029,-4.68038 0.34967,-0.26047 -0.28845,-0.34075 -0.74903,-0.0943 -0.41072,0.21981 -0.55183,0.2175 -0.55183,-0.009 0,-0.3784 -1.31335,0.44163 -1.80094,1.12445 -0.19015,0.2663 -0.57909,0.48416 -0.86431,0.48416 -0.28521,0 -1.79651,0.63744 -3.35843,1.41652 -2.76132,1.37732 -4.72563,2.09824 -4.16278,1.52777 0.14552,-0.14749 1.33615,-0.82407 2.64583,-1.5035 1.30969,-0.67944 2.62705,-1.46017 2.92747,-1.73494 0.30042,-0.27478 0.70881,-0.49958 0.90753,-0.49958 0.51409,0 4.52748,-2.73774 6.94779,-4.73944 1.97087,-1.62997 2.5765,-2.40601 1.14641,-1.46898 -0.37643,0.24664 -0.68442,0.32938 -0.68442,0.18386 0,-0.14552 0.26922,-0.44098 0.59827,-0.65658 0.68715,-0.45023 5.59203,-5.23637 6.5597,-6.4009 0.54565,-0.65664 0.44588,-0.61511 -0.63566,0.26459 -0.7056,0.57392 -1.79047,1.48997 -2.41084,2.03568 -0.62036,0.5457 -1.20548,0.99218 -1.30025,0.99218 -0.0948,0 -0.76452,0.59532 -1.48829,1.32292 -1.20039,1.20671 -1.85209,1.60972 -1.85209,1.14531 0,-0.0977 0.19771,-0.39607 0.43935,-0.66308 0.92792,-1.02533 0.14229,-0.64781 -1.50085,0.72122 -0.94414,0.78664 -1.85552,1.43299 -2.0253,1.43632 -0.16977,0.003 -0.34836,0.12026 -0.39687,0.25983 -0.19868,0.57168 -8.54662,5.26662 -8.84101,4.97223 -0.0423,-0.0423 1.18392,-0.78903 2.72503,-1.65931 1.54112,-0.87027 3.26447,-1.91377 3.82967,-2.31888 1.14643,-0.8217 1.14335,-1.55296 -0.003,-0.77848 -0.38997,0.26339 -1.18528,0.71153 -1.76736,0.99584 -0.58209,0.28433 -1.39582,0.74109 -1.8083,1.01504 -1.01779,0.67595 -4.97829,2.33077 -5.1551,2.15396 -0.0781,-0.0781 0.4744,-0.40251 1.22786,-0.72083 0.75345,-0.31834 1.36991,-0.67422 1.36991,-0.79086 0,-0.3558 -0.4892,-0.24123 -1.79473,0.42031 -1.50204,0.76112 -6.20304,2.54271 -6.70854,2.54241 -0.19815,-1e-4 0.41364,-0.36631 1.35952,-0.81376 0.94589,-0.44746 2.04685,-1.21031 2.44658,-1.69522 0.39973,-0.48492 1.59035,-1.35747 2.64583,-1.93903 2.94488,-1.6226 8.89806,-5.70503 9.32376,-6.39382 0.39736,-0.64295 -0.57193,-0.17544 -2.07553,1.00106 -2.46097,1.92561 -6.71204,3.81611 -9.28639,4.1298 l -1.31137,0.15978 1.57596,-0.95306 c 0.86677,-0.52419 2.00868,-1.17552 2.53757,-1.44741 0.52889,-0.27189 1.30279,-0.82947 1.71979,-1.23908 0.417,-0.40959 1.80326,-1.44291 3.08058,-2.29625 1.99639,-1.33372 3.1908,-2.31134 2.41078,-1.9732 -1.13393,0.49155 -3.67004,2.01411 -4.9025,2.94322 -0.53084,0.40018 -1.13326,0.72761 -1.33871,0.72761 -0.20545,0 -0.78363,0.30671 -1.28484,0.68159 -0.75598,0.56542 -4.03722,2.22882 -4.39659,2.22882 -0.0576,0 0.26057,-0.35718 0.70717,-0.79375 0.4466,-0.43656 0.94905,-0.79375 1.11655,-0.79375 0.16751,0 0.55035,-0.21985 0.85077,-0.48856 0.30043,-0.26871 1.73685,-1.29519 3.19206,-2.28108 3.1096,-2.10672 2.9119,-1.94727 2.68982,-2.16935 -0.0971,-0.0971 -0.64571,0.20059 -1.2192,0.66146 -0.5735,0.46087 -1.20021,0.83795 -1.3927,0.83795 -0.81985,0 -3.21111,1.08296 -4.08449,1.84979 -0.52967,0.46506 -1.11523,0.76555 -1.3307,0.68287 -0.21164,-0.0812 -0.7455,0.0389 -1.18637,0.26685 -1.4735,0.76197 -1.06924,0.17953 0.48867,-0.70405 2.34601,-1.33057 4.89414,-3.12627 6.6341,-4.67515 0.36782,-0.32742 0.7577,-0.59531 0.8664,-0.59531 0.10871,0 0.26385,-0.17253 0.34477,-0.3834 0.10512,-0.27394 0.0188,-0.33553 -0.30242,-0.21572 -0.43324,0.16159 0.13945,-0.3919 3.34963,-3.23734 1.92777,-1.70874 4.64833,-4.79999 6.28496,-7.14132 3.5433,-5.069 5.56583,-9.87853 6.68352,-15.89336 0.37763,-2.03212 0.3972,-4.11893 0.0334,-3.55594 -0.20741,0.32093 -0.25725,0.28294 -0.26053,-0.19844 -0.002,-0.33668 0.13963,-0.56658 0.32667,-0.52918 0.93939,0.18789 0.34095,-9.59714 -0.8709,-14.24008 -1.03088,-3.9496 -2.74506,-8.69567 -3.70259,-10.25146 -0.43138,-0.70088 -0.78432,-1.4564 -0.78432,-1.67894 0,-0.39107 -0.77398,-1.65459 -1.51338,-2.47065 -0.19777,-0.21828 -0.86466,-1.05172 -1.48196,-1.85208 -1.83798,-2.38306 -4.93728,-5.20835 -5.30742,-4.83821 -0.0913,0.0913 -0.43341,-0.0712 -0.76026,-0.3611 -3.24015,-2.87388 -8.62129,-4.89343 -15.03272,-5.64181 -4.22401,-0.49305 -10.64672,0.23841 -13.87196,1.57982 -4.026901,1.67484 -5.335601,2.26112 -7.069521,3.16707 -1.12333,0.58693 -2.21874,1.06714 -2.43425,1.06714 -0.2155,0 -0.48703,0.14883 -0.6034,0.33073 -0.11637,0.1819 -0.47947,0.48057 -0.8069,0.6637 -0.50578,0.2829 -0.59531,0.2706 -0.59531,-0.0818 0,-0.2281 -0.12222,-0.33919 -0.2716,-0.24687 -0.14938,0.0923 -0.23868,0.35489 -0.19844,0.58347 0.0402,0.2286 -0.0757,0.46767 -0.25756,0.53127 -0.1819,0.0636 -0.33073,-0.0204 -0.33073,-0.1866 0,-0.16624 -0.11906,-0.22867 -0.26458,-0.13873 -0.14553,0.0899 -0.26459,0.38651 -0.26459,0.65906 0,0.27254 -0.33467,0.73384 -0.74372,1.0251 -1.37359,0.97809 -5.11679,4.63655 -5.49781,5.37337 -0.24737,0.47836 -0.51616,0.67614 -0.78085,0.57459 -0.28969,-0.11117 -0.52448,0.1528 -0.8318,0.93513 -0.23549,0.59953 -0.52611,1.09004 -0.64582,1.09004 -0.2972,0 -1.025,1.44943 -1.025,2.0413 0,0.26405 -0.23812,0.92436 -0.52916,1.46739 -0.29105,0.54302 -0.53787,1.1961 -0.54851,1.45128 -0.0106,0.2552 -0.24699,0.82118 -0.52524,1.25774 -0.71008,1.1141 -1.06589,1.9761 -1.2359,2.9941 -0.19839,1.18797 -1.03687,2.79448 -1.26546,2.42463 -0.0995,-0.16099 0.003,-0.49543 0.22678,-0.74318 0.22841,-0.2524 0.5199,-1.35434 0.66287,-2.5059 0.14035,-1.13048 0.4448,-2.34482 0.67657,-2.69855 0.23176,-0.3537 0.42139,-0.82557 0.42139,-1.04859 0,-1.67819 4.23975,-8.04017 7.44576,-11.17281 2.86513,-2.79955 6.80034,-5.59399 7.37632,-5.23802 0.14923,0.0922 1.07226,-0.28421 2.05118,-0.83653 0.97892,-0.55233 2.31564,-1.27622 2.97049,-1.60866 0.65484,-0.33244 1.666871,-0.89491 2.248951,-1.24992 2.57662,-1.57148 6.76062,-3.05511 8.61571,-3.05511 0.28183,0 0.51241,-0.0991 0.51241,-0.22021 0,-0.2662 -2.77735,-0.0997 -3.70416,0.22206 -0.92625,0.32158 -2.46876,0.64 -2.74509,0.56668 -0.12736,-0.0338 -0.42501,0.11196 -0.66146,0.32389 -0.23645,0.21194 -0.99545,0.44659 -1.68668,0.52146 -1.384861,0.15001 -1.555131,-0.0764 -0.83291,-1.10754 0.23313,-0.33283 0.36866,-0.66036 0.30117,-0.72784 -0.0675,-0.0675 -0.978901,0.18617 -2.025381,0.56365 -1.04649,0.37749 -2.04522,0.63286 -2.2194,0.56749 -0.18849,-0.0708 -0.10247,-0.2036 0.21246,-0.32815 0.29104,-0.11511 0.62301,-0.36466 0.73772,-0.55455 0.1147,-0.1899 1.19389,-0.64582 2.3982,-1.01315 2.212511,-0.67486 3.668361,-1.43392 2.783371,-1.45121 -0.23689,-0.005 -0.87787,0.17842 -1.4244,0.40678 -0.87311,0.36481 -0.97512,0.36682 -0.84072,0.0166 0.0928,-0.2419 -0.0233,-0.44331 -0.295401,-0.51232 -0.30388,-0.0771 -0.086,-0.26585 0.676131,-0.58588 0.61846,-0.25969 1.12448,-0.57543 1.12448,-0.70165 0,-0.27769 -1.18729,-0.0155 -2.169681,0.47918 -0.39295,0.19786 -0.92953,0.35974 -1.1924,0.35974 -0.37959,0 -3.87138,1.79077 -6.16292,3.16066 -0.21829,0.13049 -1.13383,0.61798 -2.03454,1.08331 -1.6494,0.85212 -4.72594,3.89254 -10.2161,10.09613 -1.90004,2.14695 -2.41002,2.85509 -1.77228,2.46094 0.50814,-0.31405 0.25562,0.18231 -0.95796,1.883 -0.6724,0.94228 -1.1681,1.76769 -1.10155,1.83422 0.19246,0.19247 3.12563,-3.87282 3.63769,-5.04169 0.61863,-1.41217 6.45378,-7.29937 6.581,-6.63973 0.0836,0.43343 0.12104,0.43488 0.57691,0.0223 0.45944,-0.41579 0.47944,-0.41028 0.34713,0.0957 -0.0772,0.29527 -0.55446,1.0206 -1.06055,1.61185 -1.00159,1.17013 -0.78308,1.48427 0.28765,0.41354 0.64162,-0.64162 1.47926,-0.89042 1.47926,-0.43939 0,0.12214 -0.41472,0.59946 -0.92159,1.06071 -0.50688,0.46124 -0.99345,1.1249 -1.08127,1.47479 -0.0961,0.38312 -0.4192,0.7013 -0.81216,0.79992 -0.35887,0.0901 -0.88982,0.56601 -1.17989,1.05764 -0.29006,0.49162 -0.7005,0.96029 -0.91207,1.04148 -0.21158,0.0812 -0.38468,0.32994 -0.38468,0.55279 0,0.22285 -0.1786,0.40518 -0.39688,0.40518 -0.22048,0 -0.39687,0.23519 -0.39687,0.52917 0,0.29104 -0.1168,0.52917 -0.25955,0.52917 -0.14275,0 -0.34163,0.32705 -0.44195,0.72679 -0.10033,0.39974 -0.60835,1.382 -1.12893,2.18281 -0.52058,0.80081 -1.09861,1.80425 -1.28451,2.22987 -0.25885,0.59265 -0.41077,0.70107 -0.64882,0.46302 -0.17096,-0.17096 -0.40903,-0.31083 -0.52904,-0.31083 -0.26908,0 -0.80136,1.23383 -0.89975,2.08561 -0.0401,0.34672 -0.31686,0.89018 -0.61513,1.20768 -0.29828,0.3175 -0.54232,0.71843 -0.54232,0.89095 0,0.17252 -0.1786,0.31368 -0.39688,0.31368 -0.22048,0 -0.39687,0.23518 -0.39687,0.52917 0,0.29104 0.11906,0.52916 0.26458,0.52916 0.14552,0 0.26458,0.1318 0.26458,0.29289 0,0.16109 -0.15899,0.23188 -0.35331,0.15732 -0.25476,-0.0978 -0.4486,0.35558 -0.69495,1.62533 -0.18791,0.96851 -0.5302,1.97655 -0.76065,2.24009 -0.28351,0.32422 -0.32653,0.53812 -0.13305,0.66146 0.15728,0.10026 0.2585,0.65854 0.22493,1.24062 -0.0777,1.34668 -0.12395,1.44141 -0.38791,0.79375 -0.1966,-0.48237 -0.23322,-0.46231 -0.41409,0.22684 -0.23568,0.89795 0.34252,1.47486 0.82841,0.82656 0.6769,-0.90316 0.7819,-0.39707 1.17817,5.6788 0.16537,2.53544 0.44189,4.72937 0.6627,5.25784 0.20841,0.49878 0.37513,1.10069 0.3705,1.33758 -0.0204,1.04237 -0.76083,-0.63355 -1.05779,-2.39411 -0.17184,-1.01877 -0.47776,-2.16917 -0.67982,-2.55645 l -0.36738,-0.70414 -0.002,0.8561 c -7.9e-4,0.47085 0.1105,1.36382 0.24754,1.98437 0.13704,0.62055 0.38471,1.90218 0.55037,2.84807 0.56309,3.21508 2.30233,6.80922 4.31849,8.92414 0.58667,0.61541 0.98314,1.20247 0.88104,1.30457 -0.1021,0.1021 0.13477,0.52008 0.52638,0.92883 0.39161,0.40875 0.62493,0.83028 0.51848,0.93672 -0.10644,0.10645 -0.29965,0.0218 -0.42934,-0.18801 -0.1297,-0.20985 -0.31691,-0.30045 -0.41604,-0.20133 -0.0991,0.0991 -0.5346,-0.003 -0.96774,-0.22702 l -0.78752,-0.40724 0.48954,0.82872 c 0.56677,0.95947 3.3403,3.67481 4.47713,4.3832 1.02431,0.63827 1.96713,1.48166 1.96713,1.75966 0,0.12261 -0.56555,-0.0621 -1.25677,-0.41039 -0.69123,-0.34833 -1.65257,-0.71892 -2.13632,-0.82355 -1.22808,-0.26561 -2.30093,-1.29102 -4.5599,-4.35827 -1.11495,-1.51388 -2.05144,-2.55144 -2.18361,-2.41927 -0.13217,0.13217 -0.0376,0.52723 0.22052,0.92116 0.28096,0.4288 0.33776,0.68974 0.15013,0.68974 -0.1977,0 -0.15008,0.29662 0.13806,0.8599 l 0.43986,0.8599 -0.59245,-0.52855 c -0.32585,-0.29069 -0.77278,-0.88601 -0.99318,-1.32291 -0.22041,-0.43691 -0.64424,-1.06072 -0.94185,-1.38626 -0.29762,-0.32553 -0.75858,-1.03991 -1.02436,-1.5875 l -0.48323,-0.99562 0.14635,0.92604 c 0.21964,1.38971 0.95842,3.5032 1.43354,4.10105 0.2313,0.29104 0.62443,0.98075 0.87363,1.53269 0.29219,0.64718 0.6043,0.97601 0.87894,0.92604 0.2909,-0.0529 0.7396,0.50948 1.41582,1.7746 1.15077,2.15297 3.02178,4.36562 3.69155,4.36562 0.25574,0 0.60654,0.31066 0.77954,0.69036 0.22211,0.48748 0.46156,0.65191 0.81481,0.55954 0.48715,-0.12739 2.56295,0.80474 5.10715,2.29334 1.38995,0.81327 1.72452,0.53003 0.44778,-0.37908 -1.33185,-0.94836 -0.66938,-0.90429 1.39013,0.0925 1.06282,0.51438 2.34912,0.99169 2.85844,1.06068 0.50932,0.069 1.19393,0.21126 1.52136,0.31616 0.45052,0.14435 0.59531,0.0867 0.59531,-0.23699 0,-0.53683 0.0957,-0.53402 1.13762,0.0334 0.46571,0.25364 1.14441,0.48157 1.50821,0.50654 2.93382,0.20122 6.018121,2.63572 7.947961,6.27353 0.35755,0.67398 0.78866,1.22543 0.95802,1.22543 0.43296,0 0.70096,1.88194 0.48825,3.42855 -0.17379,1.2636 -1.46148,3.7152 -1.95139,3.7152 -0.13295,0 -0.31554,0.29411 -0.40576,0.65359 -0.18269,0.72786 -1.4199,1.99223 -1.94945,1.99223 -0.18796,0 -0.40822,0.17326 -0.48948,0.38502 -0.2089,0.54438 -2.715111,1.21717 -3.848771,1.03321 -0.67452,-0.10945 -1.15858,-0.0127 -1.69481,0.33876 -0.61755,0.40476 -1.26869,0.49181 -3.67291,0.49104 -2.72669,-8e-4 -3.02523,-0.054 -4.46029,-0.79375 -2.38977,-1.23188 -9.89533,-6.42992 -10.56331,-7.31571 -0.9094,-1.20596 -1.45101,-1.73728 -4.47269,-4.38772 -3.22757,-2.83105 -7.54252,-7.21195 -8.45813,-8.58741 -0.34784,-0.52255 -1.30104,-1.9452 -2.1182,-3.16145 -3.07364,-4.57472 -6.56935,-12.76522 -6.1542,-14.41934 0.0964,-0.38426 -0.02,-0.89938 -0.3,-1.32665 -0.25172,-0.38417 -0.61972,-1.84182 -0.81778,-3.23922 -0.37131,-2.61979 -0.51141,-9.25223 -0.18861,-8.92943 0.20497,0.20498 0.21912,0.30334 0.59546,4.13975 0.55931,5.70149 1.43,9.63768 2.54229,11.4931 0.78805,1.31454 0.80963,0.88795 0.0862,-1.70353 -0.30468,-1.0914 -0.85101,-3.05593 -1.21407,-4.36562 -0.8184,-2.95226 -1.04351,-7.62345 -0.62477,-12.96458 0.37407,-4.77142 0.49058,-5.5459 1.07466,-7.14375 0.26597,-0.72761 0.63097,-1.97776 0.81111,-2.77812 0.18013,-0.80037 0.54251,-1.73149 0.80527,-2.06915 0.26276,-0.33767 0.55208,-1.17111 0.64293,-1.85208 0.0908,-0.68098 0.40447,-1.893 0.69694,-2.69335 1.04384,-2.85652 2.66995,-6.62394 2.92785,-6.78333 0.4296,-0.26551 -0.0622,1.23884 -1.07973,3.30259 -0.60636,1.22986 -0.69309,1.62864 -0.3542,1.62864 0.1169,0 0.6001,-0.94788 1.07378,-2.10643 0.47369,-1.15853 1.09814,-2.37893 1.38767,-2.71198 l 0.52643,-0.60554 -0.18018,0.92605 c -0.0991,0.50932 -0.46068,1.52134 -0.80353,2.24895 -0.47761,1.01362 -0.57221,1.50849 -0.4046,2.11666 l 0.21875,0.79375 0.72215,-1.41537 c 0.77206,-1.51318 1.20566,-1.67973 0.71598,-0.27502 -0.16301,0.46759 -0.24718,0.89936 -0.18705,0.95948 0.0601,0.0601 0.18776,-0.13777 0.28361,-0.43978 0.0959,-0.30199 0.296,-0.54909 0.44477,-0.54909 0.14877,0 0.49398,-0.26789 0.76712,-0.59531 0.73293,-0.87857 0.62457,-0.22856 -0.4186,2.51106 -1.68101,4.41471 -2.6997,7.71443 -2.87899,9.32547 -0.22966,2.06379 0.11427,1.66565 1.02548,-1.18705 1.31064,-4.10322 2.04415,-6.08606 2.31282,-6.25211 0.1653,-0.10215 0.20204,0.0732 0.0973,0.46428 -0.0926,0.34565 0.15863,0.0331 0.5583,-0.69447 0.57005,-1.0378 0.74536,-1.20532 0.81337,-0.77728 0.0477,0.30009 -0.15678,1.11364 -0.45436,1.80786 -0.29758,0.69423 -0.533,1.57979 -0.52315,1.96791 l 0.0179,0.70567 0.27667,-0.66146 c 0.56906,-1.36047 1.27332,-2.51171 1.50356,-2.45782 0.23461,0.0549 1.89368,-2.82539 1.88224,-3.26775 -0.003,-0.12515 -0.24853,0.0701 -0.54509,0.43392 l -0.53921,0.66145 0.41859,-0.85797 c 0.23023,-0.47188 0.54854,-0.82907 0.70736,-0.79375 0.15882,0.0353 0.94206,-0.97758 1.74054,-2.25089 0.79849,-1.27331 1.62546,-2.31509 1.83773,-2.31509 0.42167,0 0.41778,0.009 -0.81881,1.904 -2.49178,3.81839 -3.09832,5.08569 -3.20426,6.69495 -0.0383,0.58208 -0.25393,1.62388 -0.47913,2.31511 -0.22519,0.69121 -0.30026,1.25677 -0.16682,1.25677 0.36108,0 0.70489,-0.78096 0.923,-2.09658 0.10673,-0.64379 0.6423,-1.90287 1.19016,-2.79796 0.54786,-0.8951 1.07642,-1.99313 1.17459,-2.44007 0.0982,-0.44694 0.40985,-1.022 0.69265,-1.27793 0.28279,-0.25592 0.51417,-0.68621 0.51417,-0.95619 0,-0.26997 0.41672,-1.08374 0.92604,-1.80835 0.50932,-0.72462 0.92604,-1.3808 0.92604,-1.45818 0,-0.0774 0.59849,-0.74549 1.32998,-1.48472 1.31938,-1.33339 2.33523,-2.87795 1.89277,-2.87795 -0.1267,0 -0.44587,0.23813 -0.70926,0.52917 -0.77742,0.85904 -1.03573,0.60362 -0.2881,-0.28489 0.37674,-0.44772 0.68498,-0.91595 0.68498,-1.0405 0,-0.12455 0.25985,-0.30893 0.57745,-0.40973 0.3176,-0.1008 1.95471,-1.37385 3.63802,-2.82901 1.68331,-1.45515 3.23916,-2.70251 3.45745,-2.7719 0.21828,-0.0694 1.5875,-0.70208 3.0427,-1.40599 1.45521,-0.70391 3.12209,-1.45396 3.70417,-1.66677 5.0625,-1.85089 8.638681,-3.42606 8.280671,-3.64732 -0.21748,-0.13441 -0.0652,-0.2982 0.45954,-0.49437 0.43164,-0.16135 0.96608,-0.52827 1.18766,-0.81537 0.41328,-0.53552 1.44779,-0.79198 5.34199,-1.32429 4.23738,-0.579226 12.39675,0.62062 18.59681,2.7347 2.70133,0.9211 8.19943,3.45657 8.99583,4.14848 0.29104,0.25285 1.18997,0.82403 1.99761,1.26929 0.80764,0.44526 2.41974,1.52639 3.58244,2.40251 2.39408,1.80399 8.08563,7.31607 9.33467,9.04031 1.86804,2.57876 0.29617,-0.32527 -2.57496,-4.75723 -0.5185,-0.80037 -1.51276,-2.02643 -2.20948,-2.72458 -0.69671,-0.69816 -1.26804,-1.41253 -1.26961,-1.5875 -0.002,-0.17497 -0.59132,-0.73485 -1.31053,-1.24417 -0.71921,-0.50933 -1.31323,-1.05469 -1.32005,-1.21192 -0.0171,-0.39345 -1.89261,-1.70439 -4.11342,-2.87513 -1.56041,-0.82258 -4.00541,-2.79212 -3.46618,-2.79212 0.21394,0 1.30909,0.61098 1.4818,0.82669 0.0728,0.0909 0.78714,0.44259 1.5875,0.78159 0.80037,0.33899 2.07456,1.00878 2.83155,1.48841 0.757,0.47963 1.60281,0.87206 1.8796,0.87206 0.27678,0 0.80567,0.28029 1.17532,0.62286 0.79094,0.73302 2.9786,1.16585 2.73919,0.54195 -0.11214,-0.29222 0.018,-0.33983 0.57565,-0.21056 0.39631,0.0919 0.98426,0.33147 1.30656,0.53244 0.3223,0.20096 0.77252,0.36539 1.00049,0.36539 0.22797,0 0.48919,0.20836 0.5805,0.46302 0.0913,0.25466 1.08159,1.47506 2.20062,2.71198 5.68038,6.27885 10.65455,16.2295 12.43255,24.87085 0.92447,4.49306 1.04373,5.41071 1.45894,11.22636 0.44395,6.21816 0.29941,8.31085 -0.86021,12.45384 -0.36659,1.30969 -0.87938,3.45282 -1.13956,4.7625 -0.26017,1.30969 -0.56261,2.60914 -0.67209,2.88767 -0.13949,0.35489 -0.10642,0.44918 0.1105,0.31511 0.17025,-0.10521 0.30955,-0.12338 0.30955,-0.0404 0,0.54284 -2.47734,6.16619 -2.92764,6.64552 -0.30482,0.32446 -0.52691,0.81026 -0.49353,1.07955 0.0755,0.60919 -0.54043,1.97517 -1.59277,3.53232 -0.44255,0.65485 -0.80629,1.30969 -0.80833,1.45521 -0.002,0.14552 -0.41926,0.78736 -0.92718,1.4263 -0.50791,0.63894 -0.92414,1.23425 -0.92497,1.32292 -7.9e-4,0.0887 -1.06247,1.34947 -2.35922,2.8018 -1.29674,1.45234 -2.29962,2.7346 -2.22862,2.84949 0.071,0.11489 -0.7237,1.03998 -1.76601,2.05575 -1.29705,1.26403 -2.09892,1.84687 -2.54091,1.84687 -0.39484,0 -0.71959,0.19765 -0.8357,0.50862 -0.22464,0.60162 -2.50752,2.4018 -3.04582,2.4018 -0.43953,0 -1.7743,1.17706 -1.7743,1.56467 0,0.14685 -0.47625,0.39526 -1.05834,0.552 -0.58208,0.15673 -1.05833,0.39094 -1.05833,0.52047 0,0.44888 -0.83447,1.06703 -1.44047,1.06703 -0.69256,0 -2.95433,0.94202 -3.19438,1.33044 -0.0874,0.14138 -0.44247,0.25706 -0.78911,0.25706 -0.34662,0 -0.70381,0.11906 -0.79375,0.26458 -0.0899,0.14551 -0.33156,0.26458 -0.53694,0.26458 -0.20538,0 -1.02416,0.29766 -1.8195,0.66146 -0.79535,0.36381 -1.62771,0.66146 -1.84968,0.66146 -0.33952,0 -1.82076,0.31384 -5.67177,1.20175 -0.37586,0.0867 -0.5534,0.0387 -0.45374,-0.12257 z"
       style="fill:#000000;stroke-width:0.26458332"
       id="path958" />
  </g>
</svg>
