<?xml version="1.0" encoding="UTF-8" standalone="no"?>
<svg
   xmlns:dc="http://purl.org/dc/elements/1.1/"
   xmlns:cc="http://creativecommons.org/ns#"
   xmlns:rdf="http://www.w3.org/1999/02/22-rdf-syntax-ns#"
   xmlns:svg="http://www.w3.org/2000/svg"
   xmlns="http://www.w3.org/2000/svg"
   width="162mm"
   height="112mm"
   viewBox="0 0 162 112"
   version="1.1"
   id="svg_tao">
  <defs
     id="defs969" />
  <metadata
     id="metadata972">
    <rdf:RDF>
      <cc:Work
         rdf:about="">
        <dc:format>image/svg+xml</dc:format>
        <dc:type
           rdf:resource="http://purl.org/dc/dcmitype/StillImage" />
        <dc:title></dc:title>
      </cc:Work>
    </rdf:RDF>
  </metadata>
  <path
     id="red_dl"
     d="m 15.41733,85.649031 c -0.404651,0.0168 -0.912789,0.24769 -1.119828,0.63252 -0.15658,0.29104 -0.558646,0.95687 -0.893486,1.4795 -0.55652,0.86863 -0.579424,1.03854 -0.270784,1.97714 0.20201,0.61431 0.603165,1.16123 0.998905,1.36116 0.3638,0.1838 0.750756,0.33596 0.859896,0.33796 0.3404,0.007 0.21699,-0.7097 -0.1788,-1.03818 -0.21091,-0.175 -0.33537,-0.62686 -0.28267,-1.02474 0.05183,-0.39139 0.102654,-0.85092 0.112654,-1.02165 0.01003,-0.17074 0.315745,-0.66422 0.679545,-1.09657 0.3638,-0.43236 0.661459,-0.98555 0.661459,-1.22886 0,-0.27504 -0.252162,-0.39133 -0.566891,-0.37828 z m -5.7081783,2.44688 c -0.1208803,0.0208 -0.04152,0.23079 0.225827,0.65888 0.4572003,0.73209 -0.4175793,3.17249 -1.2505695,3.48919 -0.81545,0.31003 -2.207436,1.84046 -2.217436,2.43809 -0.01325,0.79101 0.80293,0.5119 1.8495,-0.63303 1.0492499,-1.14786 1.8469148,-1.25624 1.8469148,-0.25063 0,0.61388 -0.4339863,0.96968 -0.5963456,0.48886 -0.06257,-0.18528 -0.3019323,0.0329 -0.5410522,0.49351 -0.23594,0.45449 -0.358435,0.89678 -0.272335,0.98288 0.24052,0.24052 1.0995245,-0.30299 1.4174848,-0.8971 0.15637,-0.29223 0.264712,-1.27215 0.240812,-2.17713 -0.02392,-0.90499 0.09175,-1.98819 0.257349,-2.4076 0.361459,-0.91541 0.170511,-1.65351 -0.523999,-2.0252 -0.2193903,-0.11742 -0.3636213,-0.17316 -0.4361503,-0.16072 z m 2.7393673,3.64629 c -0.244143,0.002 -0.495112,0.12703 -0.810803,0.36587 -0.70021,0.52974 -0.304809,0.82723 0.515731,0.38809 0.86013,-0.46031 1.375779,-0.0535 0.947229,0.74724 -0.21501,0.40169 -0.204819,0.56591 0.04134,0.65371 0.22933,0.0818 0.03545,0.69086 -0.641821,2.01641 -0.82404,1.61283 -0.894145,1.87544 -0.465605,1.73943 0.27758,-0.0881 0.751702,0.0128 1.053683,0.22428 0.83298,0.58344 1.957805,0.12223 2.587955,-1.06092 0.51099,-0.95942 0.332357,-1.32354 -0.296623,-0.6041 -0.81164,0.92837 -1.972227,1.48906 -2.333707,1.12758 -0.19938,-0.19939 -0.0819,-0.65775 0.402042,-1.56683 0.862291,-1.61983 0.872034,-2.58047 0.03462,-3.41788 -0.417229,-0.41722 -0.720148,-0.61604 -1.034046,-0.61288 z m 1.318783,7.475 c -0.09643,0.003 -0.164331,0.10787 -0.164331,0.27802 0,0.46474 0.158696,0.533369 0.385506,0.1664 0.08373,-0.13547 0.0311,-0.32098 -0.116789,-0.41238 -0.03697,-0.0229 -0.07224,-0.0331 -0.104386,-0.032 z m 1.952335,0.16123 c -0.29559,0 -0.362836,0.872229 -0.08837,1.146699 0.29168,0.29166 0.35295,0.20745 0.35295,-0.48524 0,-0.363799 -0.119064,-0.661459 -0.264584,-0.661459 z m -1.874304,1.355989 c -0.09192,-0.004 -0.196477,0.013 -0.291972,0.0512 -0.21107,0.0845 -0.148539,0.14698 0.159681,0.15968 0.27897,0.0115 0.435165,-0.0511 0.347265,-0.13901 -0.04396,-0.0439 -0.123058,-0.068 -0.214974,-0.0718 z m -3.348632,0.53743 c -0.0425,-0.009 -0.05696,0.0735 -0.06046,0.24547 -0.0044,0.23041 0.07095,0.49831 0.167948,0.59531 0.322789,0.32279 0.405305,-0.0413 0.120406,-0.53124 -0.11532,-0.1983 -0.185388,-0.30011 -0.227894,-0.30954 z m 5.379516,0.35554 -0.08888,2.18281 c -0.08566,2.09771 -0.471429,2.9675 -0.645439,1.45521 -0.06545,-0.56881 -0.228074,-0.73303 -0.745174,-0.75293 -0.57549,-0.0222 -0.584126,-0.0114 -0.06615,0.0837 0.48057,0.0882 0.595312,0.28416 0.595312,1.01751 0,0.88747 -0.02598,0.90939 -1.124479,0.93999 -1.05532,0.0294 -1.075659,0.0435 -0.330729,0.23306 1.1616,0.29588 1.434625,0.29431 2.001945,-0.009 0.45591,-0.2439 0.505853,-0.54098 0.457853,-2.71198 z m -1.561145,0.68781 c -0.5396,0.0246 -0.534111,0.041 0.08165,0.23823 0.3638,0.11651 0.698107,0.22373 0.743107,0.23823 0.04493,0.0145 0.0083,-0.0927 -0.08165,-0.23823 -0.08994,-0.14551 -0.424277,-0.25273 -0.743107,-0.23823 z m -2.96106,3.41323 c -0.03882,0 -0.132672,0.23811 -0.208772,0.52917 -0.08649,0.3307 -0.0083,0.52916 0.208772,0.52916 0.216961,0 0.295273,-0.19846 0.208773,-0.52916 -0.07611,-0.29106 -0.169973,-0.52917 -0.208773,-0.52917 z m -2.0065939,0.82682 c -0.09192,-0.004 -0.196472,0.013 -0.2919719,0.0512 -0.21106,0.0845 -0.14855,0.14698 0.1596799,0.15968 0.2789603,0.0115 0.4351653,-0.0511 0.3472663,-0.13901 -0.04396,-0.0439 -0.123059,-0.068 -0.2149743,-0.0718 z"
     style="fill:#a8071e;fill-opacity:0.81568627;stroke-width:0.26458332" />
  <path
     id="red_ur"
     d="m 147.24532,6.2109902 c -0.0306,-0.00164 -0.058,-9.525e-4 -0.0827,0.00259 -0.32879,0.047069 -0.13511,0.561797 0.47129,1.7595826 l 0.65268,1.28881 -0.67903,0.8898682 c -0.37349,0.48967 -0.63763,0.924649 -0.58653,0.966349 0.0511,0.04174 0.33116,0.208994 0.62218,0.371554 0.89516,0.49998 1.433,0.351459 2.56987,-0.709001 0.88982,-0.8300097 1.0337,-1.0892022 0.77101,-1.3890622 -0.17762,-0.2027499 -0.53832,-0.7824633 -0.8015,-1.2882935 -0.3449,-0.6629 -0.85865,-1.0862365 -1.83968,-1.5161866 -0.52278,-0.2291162 -0.88347,-0.3647442 -1.09761,-0.3762044 z m 8.67648,5.8435708 c -0.25953,-0.01095 -0.48179,0.07555 -0.60565,0.275952 -0.0899,0.14552 0.0953,0.264584 0.41186,0.264584 0.48477,0 0.55386,0.11466 0.43719,0.72502 -0.0762,0.39863 -0.014,0.957268 0.13797,1.241268 0.26502,0.49518 0.30174,0.486367 0.89969,-0.208773 l 0.62373,-0.72502 -0.57722,-0.780831 c -0.3585,-0.484888 -0.89502,-0.773955 -1.32757,-0.7922 z m -9.58856,3.186369 c -0.5247,0 -1.90837,1.011398 -3.53105,2.581238 -0.64008,0.61924 -1.44976,1.197393 -1.79938,1.285193 -0.74501,0.18698 -0.83229,0.587306 -0.1726,0.791166 0.25466,0.07869 0.64163,0.246634 0.8599,0.373104 1.19291,0.691118 2.59859,-0.126793 3.41684,-1.987993 0.46478,-1.05716 0.8173,-1.728986 1.28416,-2.447395 0.3475,-0.53472 0.34181,-0.595313 -0.0579,-0.595313 z m 10.03194,0.04909 c -0.15413,-0.01248 -0.80852,0.510864 -1.51825,1.220598 -0.8723,0.87227 -1.2204,1.376143 -0.95033,1.376143 0.49029,0 2.74206,-2.337212 2.49235,-2.586922 -0.006,-0.0057 -0.0135,-0.009 -0.0238,-0.0098 z m -5.24515,1.939934 c -0.16342,-0.01383 -0.17106,0.38552 -0.17519,1.60817 -0.004,1.25532 -0.17259,2.194361 -0.53847,3.000851 l -0.53226,1.173571 0.5395,-0.488342 c 0.60153,-0.54438 0.65811,-0.524695 0.91932,0.325045 0.22195,0.72194 -0.35062,1.035724 -1.12913,0.619084 -0.40285,-0.2156 -0.5571,-0.191257 -0.67076,0.104903 -0.19207,0.50051 0.7729,1.173476 1.43454,1.000456 0.28163,-0.0737 0.51693,-0.09009 0.52193,-0.03669 0.005,0.05335 0.0719,1.168187 0.14831,2.477886 0.0764,1.30969 0.1873,2.530078 0.2465,2.711979 0.21094,0.647629 0.58681,0.315371 0.74827,-0.661458 0.0902,-0.545711 0.16492,-1.919052 0.16692,-3.052011 l 0.003,-2.059823 1.23714,-0.5302 c 0.68038,-0.29164 1.39476,-0.469841 1.5875,-0.395841 0.67683,0.25973 0.33232,-0.776286 -0.54984,-1.653646 l -0.88315,-0.878499 0.0315,0.994254 c 0.0263,0.81957 -0.0931,1.065838 -0.68058,1.400948 -0.39193,0.22361 -0.78364,0.335147 -0.87074,0.248047 -0.087,-0.08705 -0.22084,-0.798592 -0.29714,-1.580782 -0.29479,-3.02071 -0.43744,-3.650913 -0.92398,-4.091223 -0.15301,-0.138481 -0.25903,-0.230391 -0.33331,-0.236678 z m -3.47938,0.750858 c -0.41269,-0.01705 -0.93646,0.302771 -1.71721,0.953431 -0.71198,0.593369 -0.85384,0.844428 -0.61443,1.086238 0.24022,0.24264 0.51918,0.186103 1.22163,-0.248047 1.08807,-0.67246 1.24489,-0.690894 1.24489,-0.147794 0,0.29435 0.15362,0.365686 0.52916,0.246496 0.36212,-0.11493 0.52917,-0.04761 0.52917,0.213424 0,0.76231 -0.81095,2.653493 -1.39061,3.243213 -1.20023,1.22103 -2.04897,2.202554 -2.04897,2.369364 0,0.40697 0.70435,-0.109592 1.19062,-0.873331 0.29105,-0.4571 0.63094,-0.835293 0.75551,-0.841293 0.26437,-0.01189 0.90502,-0.798885 2.11977,-2.603975 l 0.87074,-1.293461 -0.58445,-0.732255 c -0.43038,-0.53974 -0.62712,-0.637534 -0.74828,-0.371554 -0.11009,0.24169 -0.21095,0.264056 -0.30592,0.0677 -0.33708,-0.696845 -0.63893,-1.0511 -1.05162,-1.068152 z m -5.14129,8.372616 c -0.15408,0 -0.28008,0.119053 -0.28008,0.264584 0,0.145519 0.0526,0.264584 0.11679,0.264584 0.0642,0 0.19018,-0.119065 0.28008,-0.264584 0.0899,-0.145531 0.0373,-0.264584 -0.11679,-0.264584 z M 155.37609,27.003 c -0.63817,-0.01087 -0.7214,0.08545 -0.7214,0.837676 0,0.467579 -0.14031,0.896847 -0.31161,0.953947 -0.17536,0.05846 -0.22232,0.247745 -0.10748,0.433565 0.28431,0.46002 1.76192,0.262451 2.10219,-0.28112 0.47779,-0.763249 -0.0992,-1.929368 -0.9617,-1.944068 z m -3.23494,3.716054 c -0.14551,0 -0.3008,0.565539 -0.3452,1.256771 -0.0649,1.012169 0.002,1.256771 0.3452,1.256771 0.34322,0 0.4102,-0.244602 0.3452,-1.256771 -0.0444,-0.691232 -0.19968,-1.256771 -0.3452,-1.256771 z m -19.82618,9.696564 c -0.0109,0.0026 -0.0209,0.0085 -0.03,0.01757 -0.0728,0.07276 -0.0554,0.33287 0.0388,0.57826 0.0942,0.245359 0.23056,0.386993 0.30334,0.314193 0.0728,-0.07276 0.0554,-0.333396 -0.0388,-0.578776 -0.0824,-0.214699 -0.19718,-0.349618 -0.27337,-0.331248 z m 0.66043,2.071708 c -0.0555,-0.0053 -0.11599,0.01728 -0.17519,0.07648 -0.0874,0.08733 -0.0659,0.309618 0.0481,0.494027 h 5.3e-4 c 0.16671,0.26965 0.22872,0.269894 0.31833,0.0011 0.0959,-0.287768 -0.0252,-0.555508 -0.19172,-0.571542 z"
     style="fill:#a8071e;fill-opacity:0.81568627;stroke-width:0.26458332" />
  <path
     id="tao_circle"
     d="m 81.678734,-0.36535238 c -0.691219,-0.00223 -1.256771,0.11492922 -1.256771,0.26044922 0,0.33805 1.593567,0.33805 2.116667,0 0.287041,-0.18552999 0.04908,-0.25744921 -0.859896,-0.26044922 z m 2.262912,0.84232585 c -0.187121,2.5302e-4 -0.37371,0.009331 -0.555521,0.028422 -2.653742,0.27864001 -5.831414,1.32366433 -6.292123,2.06912433 -0.154831,0.25051 1.711394,-0.024455 2.335774,-0.344165 0.309271,-0.15834 0.463021,-0.1364609 0.463021,0.065629 0,0.19497 0.248385,0.240144 0.698666,0.127124 0.384368,-0.09651 1.948006,-0.177834 3.474207,-0.179834 1.939758,-0.00301 2.690876,-0.08828 2.496486,-0.2826701 -0.153328,-0.15295 -0.21971,-0.430013 -0.148309,-0.6159831 0.168672,-0.43954745 -1.16236,-0.86941845 -2.472201,-0.86764713 z M 75.00059,2.6980266 c -0.699371,-0.013105 -1.822458,0.2749293 -1.927016,0.5885945 -0.08821,0.26466 0.126368,0.3064832 0.904338,0.1767334 C 75.472652,3.2140644 75.781579,3.08488 75.505468,2.82205 75.419833,2.7405348 75.233712,2.7023949 75.00059,2.6980266 Z m 8.52661,0.6728269 c -1.282176,0.012467 -3.105237,0.3134096 -3.105237,0.6480226 0,0.2806001 0.393126,0.3741375 1.570448,0.3741375 1.85226,0 3.16085,-0.4017206 2.72593,-0.8366416 C 84.58102,3.41905 84.110006,3.3651867 83.5272,3.3708535 Z M 70.63238,3.6266519 c -0.363802,-0.00746 -1.137711,0.2118598 -1.719792,0.4873088 -1.35578,0.64159 -0.666636,0.6509895 1.058334,0.01447 0.967552,-0.3570201 1.145238,-0.4917782 0.661458,-0.5017788 z m 8.828402,0.085266 c -0.08844,0.00836 -0.187706,0.025374 -0.29559,0.05116 -0.974878,0.2330802 -1.161317,0.3559725 -0.980818,0.6480225 0.20374,0.3296399 0.914673,0.3156432 0.914673,-0.018087 0,-0.14552 0.178596,-0.2645833 0.396875,-0.2645833 0.218281,0 0.396875,-0.121461 0.396875,-0.2697512 0,-0.1199248 -0.166691,-0.1718273 -0.432015,-0.146761 z M 74.056461,4.92218 c -0.15408,0 -0.20669,0.1190644 -0.116789,0.2645833 0.08994,0.1455198 0.215886,0.2645834 0.280085,0.2645834 0.06418,0 0.11679,-0.1190636 0.11679,-0.2645834 0,-0.1455189 -0.125976,-0.2645833 -0.280086,-0.2645833 z M 78.3177,5.2658285 c -0.06845,0.0078 -0.160605,0.023527 -0.276987,0.047025 -0.363799,0.07342 -1.375828,0.2465528 -2.248958,0.3844727 -0.87312,0.13791 -2.242349,0.4873476 -3.042708,0.7766968 -1.8835,0.6809808 -1.006875,0.7257629 0.991153,0.050643 0.837321,-0.28292 2.117706,-0.5955313 2.845305,-0.6945312 0.727609,-0.098981 1.501502,-0.2860686 1.719792,-0.4154784 0.209483,-0.1242002 0.217746,-0.1722282 0.01241,-0.1488281 z m 1.744078,2.4014038 c -1.031505,-0.010785 -1.963978,0.035572 -2.758488,0.1441772 -3.894198,0.5323099 -4.929028,0.7889468 -5.342307,1.3244669 -0.221581,0.2870999 -0.755886,0.6535872 -1.187527,0.8149373 -0.52474,0.1961703 -0.676884,0.3601333 -0.459402,0.4945433 0.358011,0.22126 -3.218132,1.796433 -8.280632,3.647323 -0.582081,0.21281 -2.248956,0.962655 -3.704167,1.666565 -1.4552,0.70391 -2.824427,1.336715 -3.042708,1.406115 -0.218289,0.06939 -1.774359,1.316774 -3.45767,2.771924 -1.683309,1.45516 -3.320421,2.728485 -3.638021,2.829285 -0.317601,0.1008 -0.577226,0.284727 -0.577226,0.409277 0,0.12455 -0.308488,0.593043 -0.685228,1.040763 -0.747631,0.88851 -0.489067,1.143778 0.288353,0.284738 0.26339,-0.29104 0.582301,-0.529167 0.709002,-0.529167 0.44246,0 -0.573011,1.54447 -1.89239,2.877861 -0.731491,0.73923 -1.330153,1.407779 -1.330153,1.48518 0,0.07738 -0.416722,0.733171 -0.926042,1.457793 -0.50932,0.724609 -0.926042,1.538703 -0.926042,1.808673 0,0.269981 -0.231391,0.700096 -0.51418,0.956014 -0.2828,0.255932 -0.594265,0.831019 -0.692465,1.277959 -0.09817,0.446939 -0.626745,1.545061 -1.174605,2.440162 -0.547859,0.895091 -1.083378,2.153973 -1.190109,2.797762 -0.218109,1.31562 -0.562377,2.096513 -0.923456,2.096513 -0.13344,0 -0.05828,-0.565562 0.166915,-1.25677 0.2252,-0.691232 0.44074,-1.733026 0.479041,-2.315104 0.105939,-1.609262 0.712674,-2.876294 3.204453,-6.694684 1.236591,-1.894998 1.240743,-1.904275 0.819074,-1.904275 -0.21227,0 -1.039641,1.041795 -1.838132,2.315104 -0.798481,1.27331 -1.581642,2.286326 -1.740461,2.251025 -0.158822,-0.03532 -0.477221,0.321868 -0.707451,0.79375 l -0.418579,0.85783 0.539502,-0.661459 c 0.29656,-0.36382 0.542186,-0.558715 0.545187,-0.433567 0.01143,0.442362 -1.647963,3.322402 -1.882574,3.267501 -0.230241,-0.05389 -0.934207,1.097261 -1.503267,2.457733 l -0.276985,0.661458 -0.01757,-0.705384 c -0.0098,-0.38812 0.225385,-1.273609 0.522965,-1.967839 0.297579,-0.694219 0.501936,-1.508069 0.454236,-1.808157 -0.06801,-0.42804 -0.243337,-0.260588 -0.813387,0.777214 -0.399669,0.727569 -0.650706,1.04018 -0.558104,0.694531 0.104738,-0.391081 0.06815,-0.566206 -0.09715,-0.464056 -0.268672,0.16605 -1.002398,2.148594 -2.313038,6.251816 -0.911209,2.852698 -1.254922,3.250795 -1.025261,1.187006 0.17929,-1.61104 1.197886,-4.910302 2.878895,-9.325012 1.04317,-2.73962 1.151509,-3.390043 0.418578,-2.511473 -0.27314,0.327419 -0.618625,0.595313 -0.767394,0.595313 -0.14877,0 -0.348518,0.247329 -0.444418,0.54932 -0.09585,0.302008 -0.223602,0.499866 -0.283703,0.439766 -0.06013,-0.06012 0.02405,-0.492043 0.187069,-0.959633 0.48968,-1.40471 0.05582,-1.238261 -0.716235,0.274921 l -0.721921,1.415417 -0.218591,-0.79375 c -0.167611,-0.608171 -0.0735,-1.103048 0.404109,-2.116666 0.342852,-0.727612 0.704469,-1.739641 0.803568,-2.248959 l 0.180351,-0.926041 -0.526582,0.605647 c -0.289531,0.333049 -0.913823,1.553448 -1.387512,2.711979 -0.473681,1.158549 -0.956937,2.106332 -1.073835,2.106332 -0.338891,0 -0.251859,-0.398465 0.354499,-1.628325 1.01753,-2.06375 1.50912,-3.568153 1.079522,-3.302641 -0.2579,0.159391 -1.884149,3.926528 -2.927988,6.783049 -0.29247,0.800349 -0.605798,2.012395 -0.696598,2.693374 -0.09085,0.680971 -0.380611,1.514414 -0.643371,1.852083 -0.26276,0.337661 -0.624988,1.268757 -0.805119,2.069126 -0.180139,0.80036 -0.544834,2.050513 -0.810804,2.778125 -0.58408,1.597848 -0.700799,2.372329 -1.074869,7.14375 -0.41874,5.341128 -0.193632,10.012323 0.624768,12.964584 0.36306,1.30969 0.909199,3.274224 1.213878,4.365624 0.723431,2.59148 0.702267,3.018312 -0.08578,1.703772 -1.112291,-1.85542 -1.983171,-5.791867 -2.542481,-11.493355 -0.37634,-3.83641 -0.390343,-3.93482 -0.595313,-4.1398 -0.3228,-0.3228 -0.182691,6.309897 0.188619,8.929687 0.19806,1.3974 0.565801,2.85491 0.817521,3.23908 0.28,0.42727 0.396641,0.942273 0.30024,1.326533 -0.41515,1.65412 3.080507,9.845072 6.154148,14.419792 0.81716,1.216249 1.770377,2.638496 2.118217,3.161048 0.915609,1.37546 5.230309,5.75654 8.457879,8.587589 3.021682,2.65044 3.563197,3.181885 4.472596,4.387844 0.667981,0.88579 8.173927,6.08344 10.563696,7.31532 1.43506,0.73975 1.733503,0.79295 4.460192,0.79375 2.404222,7.9e-4 3.055097,-0.0862 3.672645,-0.49093 0.536231,-0.35146 1.020468,-0.44793 1.694987,-0.33848 1.13366,0.18396 3.63996,-0.48915 3.848862,-1.03353 0.08126,-0.21176 0.301416,-0.38499 0.489376,-0.38499 0.52955,0 1.766543,-1.26426 1.949233,-1.99212 0.09022,-0.35949 0.273227,-0.65371 0.406177,-0.65371 0.489911,0 1.777513,-2.45142 1.951302,-3.71502 0.212709,-1.546611 -0.05538,-3.42873 -0.488341,-3.42873 -0.16936,0 -0.600533,-0.55127 -0.958083,-1.225248 -1.929839,-3.637812 -5.014015,-6.072299 -7.947834,-6.27352 -0.3638,-0.02498 -1.042726,-0.252788 -1.508435,-0.506428 -1.041921,-0.56742 -1.137399,-0.570421 -1.137399,-0.03359 0,0.323692 -0.144793,0.381545 -0.595312,0.237197 -0.32743,-0.1049 -1.012034,-0.247261 -1.521354,-0.316259 -0.509321,-0.06899 -1.79592,-0.54654 -2.858741,-1.060919 -2.059509,-0.996791 -2.721946,-1.04086 -1.390094,-0.0925 1.276738,0.909111 0.942432,1.192575 -0.447519,0.379304 -2.544199,-1.488598 -4.620033,-2.420789 -5.107181,-2.2934 -0.35325,0.09237 -0.592828,-0.07218 -0.814938,-0.559655 -0.173,-0.3797 -0.523541,-0.690395 -0.77928,-0.690395 -0.669771,0 -2.540995,-2.212655 -3.691765,-4.365625 -0.67622,-1.265121 -1.125035,-1.827469 -1.415934,-1.774571 -0.27464,0.04997 -0.586827,-0.278861 -0.879017,-0.926042 -0.249201,-0.551939 -0.64203,-1.241682 -0.873331,-1.532721 -0.475121,-0.597849 -1.213864,-2.711333 -1.433505,-4.101041 l -0.146243,-0.926042 0.483174,0.995804 c 0.265779,0.54759 0.726607,1.26197 1.024226,1.5875 0.297611,0.325538 0.721654,0.949569 0.942062,1.386478 0.220401,0.436901 0.666856,1.032227 0.992703,1.322917 l 0.592731,0.528134 -0.439767,-0.859895 c -0.288139,-0.563282 -0.335677,-0.859896 -0.137975,-0.859896 0.187629,0 0.13058,-0.260565 -0.150378,-0.689364 -0.258123,-0.39393 -0.35283,-0.789221 -0.22066,-0.921393 0.13217,-0.13217 1.068895,0.905613 2.183847,2.419493 2.25897,3.067248 3.331847,4.092262 4.559927,4.357872 0.483751,0.10463 1.445074,0.475393 2.136304,0.823722 0.691221,0.34829 1.25677,0.532921 1.25677,0.410311 0,-0.278 -0.943012,-1.121312 -1.967322,-1.759582 -1.13683,-0.708391 -3.910476,-3.423725 -4.477245,-4.383196 l -0.489376,-0.82889 0.787548,0.407213 c 0.433142,0.224017 0.868799,0.326474 0.967902,0.227375 0.09913,-0.09912 0.286295,-0.0088 0.415994,0.201022 0.12969,0.209809 0.322992,0.29455 0.429432,0.1881 0.106449,-0.106439 -0.127223,-0.528142 -0.518833,-0.936892 -0.391609,-0.408749 -0.628165,-0.826527 -0.526065,-0.928627 0.1021,-0.1021 -0.294413,-0.688903 -0.881084,-1.304313 -2.016159,-2.114918 -3.755509,-5.709439 -4.318598,-8.924518 -0.165661,-0.94589 -0.413316,-2.227339 -0.550354,-2.84789 -0.137041,-0.620549 -0.248322,-1.513525 -0.247531,-1.984375 l 0.0021,-0.856276 0.367422,0.704347 c 0.20206,0.387281 0.507704,1.537666 0.679543,2.556433 0.29696,1.760561 1.037418,3.436541 1.057817,2.39417 0.0046,-0.23689 -0.16211,-0.839124 -0.37052,-1.337903 -0.220811,-0.528471 -0.497123,-2.722121 -0.662493,-5.257559 -0.396269,-6.075871 -0.501322,-6.581883 -1.178221,-5.678723 -0.485891,0.648301 -1.064054,0.07113 -0.828373,-0.826823 0.180869,-0.68915 0.217328,-0.709231 0.413927,-0.226859 0.263962,0.647658 0.310391,0.552929 0.388091,-0.79375 0.03357,-0.582081 -0.06751,-1.139976 -0.224793,-1.240234 -0.193479,-0.123341 -0.150701,-0.337241 0.132808,-0.661459 0.230452,-0.26354 0.572767,-1.271664 0.760677,-2.240174 0.246351,-1.269751 0.440288,-1.723025 0.69505,-1.625224 0.194318,0.07456 0.353464,0.0035 0.353464,-0.157612 0,-0.161092 -0.119062,-0.293005 -0.264583,-0.293005 -0.145518,0 -0.264583,-0.238128 -0.264583,-0.529167 0,-0.293992 0.176395,-0.529167 0.396875,-0.529167 0.218281,0 0.396875,-0.141157 0.396875,-0.313676 0,-0.172522 0.243808,-0.573403 0.542086,-0.890903 0.29827,-0.3175 0.57485,-0.860956 0.61495,-1.207677 0.09839,-0.851781 0.631124,-2.08566 0.900205,-2.08566 0.12001,0 0.357688,0.140131 0.528648,0.311092 0.238051,0.238048 0.390208,0.129627 0.649057,-0.463021 0.185899,-0.425622 0.76358,-1.429028 1.284158,-2.22984 0.520581,-0.800809 1.028801,-1.783072 1.129131,-2.182812 0.100319,-0.399741 0.299082,-0.727086 0.441833,-0.727086 0.14275,0 0.259932,-0.238127 0.259932,-0.529166 0,-0.293982 0.176395,-0.529167 0.396875,-0.529167 0.218281,0 0.396875,-0.182295 0.396875,-0.405143 0,-0.222851 0.172894,-0.471223 0.384474,-0.552421 0.211568,-0.08119 0.62203,-0.550177 0.91209,-1.041797 0.290068,-0.49163 0.820901,-0.967719 1.179772,-1.057817 0.392959,-0.09862 0.716253,-0.416314 0.812352,-0.799436 0.08782,-0.349889 0.574191,-1.013605 1.081072,-1.474845 0.50687,-0.46125 0.921906,-0.938777 0.921906,-1.060917 0,-0.45103 -0.837874,-0.20237 -1.479494,0.43925 -1.070732,1.07073 -1.289428,0.756718 -0.287838,-0.413411 0.50609,-0.591251 0.983716,-1.316518 1.060916,-1.611788 0.13231,-0.505981 0.112175,-0.511392 -0.347266,-0.0956 -0.455869,0.41258 -0.493109,0.411209 -0.576707,-0.02222 -0.127222,-0.65964 -5.962364,5.227216 -6.580994,6.63939 -0.512061,1.168868 -3.44556,5.234535 -3.638021,5.042069 -0.06655,-0.06653 0.429342,-0.892233 1.101741,-1.834515 1.21358,-1.700689 1.46622,-2.19714 0.95808,-1.883087 -0.637738,0.39415 -0.128053,-0.313883 1.771986,-2.460834 5.49016,-6.20359 8.567031,-9.243905 10.21643,-10.096025 0.900711,-0.46533 1.816211,-0.952648 2.034501,-1.083138 2.29154,-1.36989 5.783341,-3.161047 6.162931,-3.161047 0.262872,0 0.799227,-0.161808 1.192176,-0.359668 0.982392,-0.49468 2.169892,-0.75673 2.169892,-0.47904 0,0.12622 -0.506015,0.442075 -1.124479,0.701766 -0.762129,0.32003 -0.980323,0.508394 -0.676444,0.585493 0.272103,0.06901 0.38839,0.270731 0.29559,0.512631 -0.134401,0.35022 -0.03234,0.348273 0.840777,-0.01654 0.546531,-0.22836 1.187312,-0.411693 1.424202,-0.406693 0.884989,0.01729 -0.570781,0.776214 -2.783293,1.451074 -1.204311,0.36733 -2.283602,0.822958 -2.398305,1.012858 -0.11471,0.18989 -0.446381,0.439378 -0.737422,0.554488 -0.314929,0.12455 -0.401397,0.257345 -0.212905,0.328145 0.174177,0.06537 1.173011,-0.189917 2.219502,-0.567407 1.04648,-0.37748 1.958215,-0.630773 2.025716,-0.563273 0.06749,0.06748 -0.06814,0.394774 -0.301273,0.727604 -0.722223,1.03114 -0.551839,1.257436 0.833022,1.107426 0.691232,-0.07487 1.449753,-0.309475 1.686203,-0.521415 0.23645,-0.21193 0.534614,-0.357811 0.661974,-0.324011 0.276331,0.07332 1.818804,-0.244794 2.745052,-0.566374 0.926812,-0.32176 3.704167,-0.488409 3.704167,-0.222209 0,0.12111 -0.230799,0.220142 -0.51263,0.220142 -1.855089,0 -6.038872,1.483631 -8.615495,3.055111 -0.582078,0.35501 -1.594117,0.917613 -2.248958,1.250052 -0.65485,0.33244 -1.991958,1.056358 -2.970877,1.608688 -0.978921,0.55232 -1.901809,0.928841 -2.051037,0.836641 -0.575982,-0.35597 -4.511164,2.438373 -7.376295,5.237924 -3.206009,3.13264 -7.445541,9.494771 -7.445541,11.172962 0,0.22302 -0.189918,0.694815 -0.42168,1.048515 -0.23177,0.353727 -0.536093,1.568061 -0.676444,2.698541 -0.14297,1.151559 -0.434597,2.25339 -0.663009,2.505789 -0.223779,0.247754 -0.326358,0.582118 -0.226859,0.743109 0.228589,0.369851 1.067168,-1.236689 1.265558,-2.42466 0.170008,-1.017998 0.526018,-1.880029 1.236098,-2.994128 0.27825,-0.43656 0.514433,-1.002607 0.525034,-1.257806 0.01064,-0.25518 0.257752,-0.908055 0.548802,-1.451075 0.291041,-0.543028 0.529166,-1.203561 0.529166,-1.467609 0,-0.591871 0.727546,-2.041218 1.024745,-2.041218 0.119711,0 0.410467,-0.490326 0.645956,-1.089856 0.307319,-0.782331 0.541782,-1.046515 0.831475,-0.935345 0.264689,0.10155 0.53346,-0.09628 0.78083,-0.574643 0.381018,-0.736819 4.124264,-4.395224 5.497854,-5.373314 0.409051,-0.291262 0.74414,-0.752205 0.74414,-1.024745 0,-0.27255 0.119055,-0.569492 0.264584,-0.659391 0.14552,-0.08994 0.264583,-0.02723 0.264583,0.139009 0,0.1662 0.148831,0.250152 0.330729,0.186552 0.181861,-0.0636 0.297551,-0.302634 0.25735,-0.531234 -0.04024,-0.22858 0.04906,-0.491127 0.198437,-0.583427 0.149381,-0.09232 0.271817,0.0184 0.271817,0.246497 0,0.3524 0.08953,0.365066 0.595313,0.08216 0.327432,-0.18313 0.6903,-0.482142 0.806669,-0.664042 0.116372,-0.1819 0.388081,-0.330729 0.603581,-0.330729 0.215511,0 1.310629,-0.480188 2.43396,-1.067118 1.733921,-0.90595 3.042949,-1.491892 7.069852,-3.166732 3.225242,-1.34141 9.647497,-2.073315 13.871506,-1.580265 6.411431,0.74838 11.79304,2.768153 15.033182,5.642033 0.32685,0.2899 0.66886,0.452518 0.76016,0.361218 0.37014,-0.37014 3.46919,2.454888 5.30717,4.83795 0.6173,0.800359 1.28431,1.633802 1.48208,1.852083 0.7394,0.81606 1.5136,2.07958 1.5136,2.47065 0,0.222539 0.35256,0.978085 0.78394,1.678967 0.95753,1.555789 2.67173,6.30197 3.70262,10.251569 1.21184,4.64294 1.81065,14.427848 0.87126,14.23996 -0.18704,-0.0374 -0.32911,0.192484 -0.32711,0.529166 0.003,0.481378 0.0536,0.519367 0.26096,0.198438 0.3638,-0.562991 0.34404,1.523735 -0.0336,3.555854 -1.11769,6.014829 -3.14001,10.824604 -6.68331,15.893603 -1.63663,2.341327 -4.35763,5.432428 -6.2854,7.141165 -3.21018,2.845438 -3.782905,3.399118 -3.349666,3.237526 0.321216,-0.119808 0.407936,-0.05845 0.302816,0.215493 -0.0809,0.21087 -0.235963,0.383439 -0.344673,0.383439 -0.108701,0 -0.498795,0.267891 -0.866613,0.595313 -1.739961,1.548881 -4.288211,3.344595 -6.634221,4.675166 -1.557911,0.883579 -1.961843,1.466318 -0.488344,0.70435 0.44087,-0.227952 0.974336,-0.348369 1.185976,-0.267168 0.215469,0.08268 0.800997,-0.217586 1.330667,-0.682647 0.873381,-0.766828 3.264656,-1.850014 4.084505,-1.850014 0.192489,0 0.819182,-0.376806 1.392679,-0.837676 0.573484,-0.46087 1.122464,-0.758558 1.219564,-0.661458 0.22208,0.22208 0.41984,0.06266 -2.689758,2.169377 -1.455209,0.98589 -2.891623,2.012288 -3.192053,2.280996 -0.300418,0.268711 -0.683601,0.488344 -0.851111,0.488344 -0.1675,0 -0.66961,0.357191 -1.116211,0.79375 -0.446598,0.436568 -0.765048,0.79375 -0.707448,0.79375 0.35937,0 3.64065,-1.663385 4.396628,-2.228805 0.501211,-0.37488 1.079228,-0.681611 1.284677,-0.681611 0.205452,0 0.808096,-0.327425 1.338937,-0.727604 1.232459,-0.929111 3.768609,-2.451423 4.902539,-2.942974 0.78002,-0.33814 -0.41432,0.639286 -2.41071,1.973006 -1.27732,0.853339 -2.66394,1.88691 -3.08094,2.296501 -0.417001,0.40961 -1.190902,0.966793 -1.719791,1.238684 -0.528892,0.271889 -1.670545,0.923266 -2.537315,1.447456 l -1.576131,0.953438 1.311548,-0.1602 c 2.574351,-0.313694 6.825279,-2.203859 9.286249,-4.129467 1.5036,-1.176502 2.47321,-1.643922 2.07584,-1.000974 -0.4257,0.688789 -6.379091,4.770808 -9.323969,6.393411 -1.055481,0.58156 -2.246104,1.4545 -2.645834,1.93942 -0.399729,0.48491 -1.500473,1.24753 -2.446363,1.69498 -0.945881,0.44745 -1.557756,0.81381 -1.359607,0.81391 0.5055,2.6e-4 5.206595,-1.78136 6.708635,-2.54248 1.305531,-0.66154 1.794721,-0.77593 1.794721,-0.42013 0,0.11664 -0.616489,0.47231 -1.369941,0.79065 -0.753459,0.31832 -1.305933,0.64278 -1.227833,0.72088 0.176811,0.17681 4.136935,-1.47792 5.154721,-2.15387 0.41248,-0.27395 1.22658,-0.73059 1.80867,-1.01492 0.58208,-0.28431 1.37737,-0.73294 1.76734,-0.99633 1.14635,-0.774481 1.14901,-0.0429 0.003,0.77877 -0.5652,0.40511 -2.2881,1.44845 -3.82922,2.31872 -1.541106,0.87028 -2.767709,1.61703 -2.72541,1.65933 0.294391,0.29439 8.64264,-4.40063 8.84132,-4.97231 0.0485,-0.139571 0.2271,-0.256416 0.39687,-0.259416 0.16978,-0.0033 1.08106,-0.649965 2.0252,-1.436606 1.64314,-1.369028 2.4286,-1.746731 1.50068,-0.721402 -0.24164,0.267009 -0.43925,0.565824 -0.43925,0.663524 0,0.46441 0.6517,0.06105 1.85209,-1.145664 0.72377,-0.727601 1.39348,-1.322917 1.48828,-1.322917 0.0948,0 0.67982,-0.446489 1.30018,-0.992187 0.62037,-0.545711 1.7051,-1.461617 2.4107,-2.035535 1.08154,-0.8797 1.18127,-0.921223 0.63562,-0.264583 -0.96767,1.164529 -5.87214,5.950929 -6.55929,6.40116 -0.32905,0.215598 -0.59841,0.51077 -0.59841,0.656288 0,0.145521 0.30777,0.06267 0.6842,-0.183967 1.43009,-0.93703 0.82468,-0.160809 -1.14619,1.469165 -2.42031,2.0017 -6.4338,4.73925 -6.94789,4.73925 -0.19872,0 -0.60702,0.22493 -0.90744,0.49971 -0.30042,0.27477 -1.61778,1.05534 -2.927467,1.73477 -1.309679,0.67943 -2.500312,1.3563 -2.645833,1.50379 -0.562851,0.57047 1.401218,-0.15075 4.16253,-1.52807 1.56192,-0.77908 3.07324,-1.41645 3.35845,-1.41645 0.28522,0 0.6744,-0.21791 0.86455,-0.48421 0.48759,-0.68282 1.80092,-1.50288 1.80092,-1.12448 0,0.2265 0.14119,0.22911 0.55191,0.009 0.46058,-0.24645 1.09846,-0.16642 0.74879,0.0941 -1.72491,1.28485 -8.587764,4.68033 -9.459883,4.68033 -0.289539,0 -1.578634,0.39994 -2.864424,0.88832 -1.285791,0.48837 -2.780128,0.96937 -3.320728,1.06867 -0.540602,0.0993 -1.0566,0.29973 -1.146701,0.44545 -0.09966,0.16127 0.07786,0.20917 0.453721,0.12247 3.85101,-0.88791 5.331968,-1.20199 5.671486,-1.20199 0.221972,0 1.054666,-0.29765 1.850017,-0.66146 0.795332,-0.3638 1.614142,-0.66146 1.819522,-0.66146 0.20538,0 0.44702,-0.11907 0.53692,-0.26458 0.0899,-0.14552 0.44713,-0.26458 0.79375,-0.26458 0.34664,0 0.7017,-0.11546 0.7891,-0.25684 0.24005,-0.38842 2.50156,-1.33066 3.19412,-1.33066 0.606,0 1.44074,-0.61824 1.44074,-1.06712 0,-0.12953 0.47625,-0.36365 1.05833,-0.52038 0.58209,-0.15675 1.05833,-0.40506 1.05833,-0.55191 0,-0.38761 1.33452,-1.56476 1.77406,-1.56476 0.5383,0 2.82117,-1.8003 3.0458,-2.40192 0.11611,-0.31097 0.44129,-0.5085 0.83613,-0.5085 0.44199,0 1.24336,-0.58288 2.54041,-1.846916 1.04231,-1.01577 1.8373,-1.940799 1.7663,-2.055689 -0.071,-0.11489 0.93207,-1.3971 2.22881,-2.84944 1.29675,-1.45233 2.35824,-2.713197 2.35903,-2.801896 7.9e-4,-0.08867 0.4171,-0.683977 0.92501,-1.322916 0.50791,-0.63894 0.92507,-1.28075 0.92707,-1.426268 0.002,-0.145521 0.36567,-0.80036 0.80822,-1.455209 1.05234,-1.557152 1.66817,-2.922894 1.59267,-3.532084 -0.0334,-0.26929 0.1892,-0.755063 0.49402,-1.079521 0.4503,-0.47933 2.92747,-6.10275 2.92747,-6.64559 0,-0.08298 -0.13929,-0.0649 -0.30954,0.04031 -0.21692,0.134072 -0.25008,0.03966 -0.11059,-0.315225 0.10948,-0.278529 0.41215,-1.577988 0.67232,-2.887678 0.26017,-1.309682 0.77288,-3.45281 1.13947,-4.7625 1.15961,-4.142991 1.30385,-6.235345 0.8599,-12.453504 -0.41521,-5.81565 -0.53436,-6.733645 -1.45883,-11.226704 -1.778,-8.64135 -6.75194,-18.591983 -12.43232,-24.870833 -1.11903,-1.23692 -2.10959,-2.457319 -2.2009,-2.711979 -0.0913,-0.25466 -0.35235,-0.463021 -0.58032,-0.463021 -0.22797,0 -0.67816,-0.164392 -1.00046,-0.365352 -0.3223,-0.20097 -0.91058,-0.440368 -1.30689,-0.532267 -0.55765,-0.129271 -0.6873,-0.0819 -0.57516,0.210322 0.23941,0.623901 -1.94843,0.191452 -2.73937,-0.541569 -0.36965,-0.342569 -0.89886,-0.623217 -1.17564,-0.623217 -0.27679,0 -1.12247,-0.392152 -1.87947,-0.871782 -0.75699,-0.47963 -2.03098,-1.149808 -2.83135,-1.488798 -0.80036,-0.339 -1.5147,-0.690447 -1.5875,-0.781347 -0.17271,-0.21571 -1.26814,-0.826823 -1.48208,-0.826823 -0.53923,0 1.90604,1.969497 3.46645,2.792077 2.22081,1.17074 4.09635,2.481827 4.11345,2.875277 0.007,0.15723 0.6006,0.702482 1.31981,1.211812 0.71921,0.50932 1.30852,1.069399 1.31052,1.244369 0.002,0.17497 0.57298,0.88934 1.26969,1.5875 0.69672,0.69815 1.69118,1.924011 2.20968,2.724381 2.87113,4.431959 4.44308,7.336092 2.57504,4.75733 -1.24904,-1.724237 -6.94075,-7.236282 -9.33483,-9.040272 -1.1627,-0.87612 -2.77509,-1.957178 -3.58273,-2.402438 -0.80764,-0.44526 -1.70626,-1.016323 -1.9973,-1.269173 -0.79639,-0.69191 -6.294504,-3.227484 -8.995833,-4.148584 C 90.86254,8.8284361 84.531635,7.7139685 80.061778,7.6672323 Z M 57.81559,8.8909302 c -0.06417,0 -0.190185,0.1190633 -0.280085,0.2645833 -0.08993,0.1455198 -0.03732,0.2645833 0.11679,0.2645833 0.154109,0 0.280085,-0.1190635 0.280085,-0.2645833 0,-0.14552 -0.05259,-0.2645833 -0.11679,-0.2645833 z m -1.333251,0.79375 c -0.207079,0 -3.047875,1.8572628 -3.047875,1.9926428 0,0.26562 0.423957,0.09207 1.773017,-0.725537 1.197571,-0.7258 1.742178,-1.2671058 1.274858,-1.2671058 z m 53.734701,1.6784508 c -0.0949,-0.01595 -0.16174,0.04255 -0.16174,0.158129 0,0.15411 0.11906,0.280087 0.26458,0.280087 0.14553,0 0.26458,-0.05259 0.26458,-0.116789 0,-0.06417 -0.11905,-0.190186 -0.26458,-0.280086 -0.0364,-0.02248 -0.0712,-0.03603 -0.10284,-0.04134 z m -57.156713,0.650606 c -0.211617,0.0255 -0.706525,0.239235 -1.279509,0.56379 -1.22962,0.6965 -1.65584,1.024888 -2.711979,2.090828 -0.145521,0.14686 -1.38253,1.318412 -2.748669,2.602942 -3.20221,3.01093 -3.971502,3.804724 -4.314981,4.451925 -0.206971,0.38998 -0.07582,0.336895 0.499192,-0.202055 0.42913,-0.40222 0.840441,-0.671613 0.91364,-0.598413 0.07321,0.0732 1.964484,-1.660672 4.202846,-3.853512 2.238369,-2.19284 4.402653,-4.159359 4.809524,-4.369759 0.40685,-0.21039 0.739489,-0.500719 0.739489,-0.645438 0,-0.03618 -0.03901,-0.04881 -0.109553,-0.04031 z m 58.782453,0.316776 c -0.14758,0 -0.11914,0.175485 0.0646,0.396875 0.18116,0.21828 0.44824,0.396875 0.59376,0.396875 0.14759,0 0.11915,-0.175485 -0.0646,-0.396875 -0.18115,-0.21828 -0.44825,-0.396875 -0.59377,-0.396875 z m 2.51251,1.099158 c -0.0395,0.0085 -0.0279,0.0726 0.0403,0.182935 0.10383,0.16801 0.0663,0.305407 -0.0832,0.305407 -0.14951,0 -0.20317,0.178595 -0.11937,0.396875 0.235,0.61242 0.86399,0.489855 0.70021,-0.136425 -0.0767,-0.293311 -0.26245,-0.609283 -0.41289,-0.702283 -0.0593,-0.03664 -0.10137,-0.05163 -0.12506,-0.04651 z m -61.335788,2.106848 c -0.399368,0.03246 -0.915993,0.536403 -0.746723,0.810287 0.0872,0.14109 0.385908,0.04358 0.679026,-0.221692 0.309322,-0.27992 0.403125,-0.513642 0.229444,-0.571542 -0.04993,-0.01664 -0.104695,-0.02169 -0.161747,-0.01705 z m -9.458854,0.34985 c -0.05188,0.01442 -0.127665,0.102078 -0.227375,0.280603 -0.436812,0.78206 -0.489874,0.812558 -0.734322,0.417029 -0.176872,-0.286171 -0.367213,-0.218282 -0.911575,0.326078 -0.689808,0.6898 -0.919556,1.505851 -0.423746,1.505851 0.145521,0 0.264584,0.187679 0.264584,0.417029 0,0.64461 1.486942,-0.636592 1.834512,-1.580782 0.292148,-0.79365 0.353547,-1.409088 0.197922,-1.365808 z m 7.508067,1.206644 c -0.136929,0 -0.322476,0.119064 -0.412376,0.264584 -0.08994,0.145519 0.0222,0.264583 0.249081,0.264583 0.22687,0 0.412377,-0.119064 0.412377,-0.264583 0,-0.14552 -0.112149,-0.264584 -0.249082,-0.264584 z m 13.680303,0.709001 c -0.120669,-0.0013 -0.40294,0.109672 -0.729671,0.295589 -0.435639,0.24789 -0.792951,0.546672 -0.79375,0.664042 -7.94e-4,0.11737 0.355629,0.0026 0.7922,-0.255281 0.43656,-0.25789 0.79375,-0.556662 0.79375,-0.664042 0,-0.02684 -0.02231,-0.03986 -0.06253,-0.04031 z m -6.022888,1.672249 c -0.145521,0 -0.264583,0.185508 -0.264583,0.412378 0,0.22686 0.119062,0.338981 0.264583,0.249081 0.145521,-0.08993 0.264583,-0.275438 0.264583,-0.412378 0,-0.13693 -0.119062,-0.249081 -0.264583,-0.249081 z m 7.481716,0.01344 c -0.126466,0 -0.343475,0.08372 -0.602549,0.251147 -0.342059,0.22103 -0.334926,0.25745 0.05064,0.26045 0.24607,0.0022 0.520914,-0.11493 0.610814,-0.26045 0.103481,-0.16743 0.06755,-0.251147 -0.05891,-0.251147 z m -1.283645,0.545703 c -0.03617,-0.0031 -0.07958,0.0031 -0.129191,0.01964 -0.191,0.06367 -0.399319,0.272031 -0.463021,0.463021 -0.06615,0.19841 0.03307,0.29761 0.231511,0.231511 0.190989,-0.06366 0.399322,-0.272021 0.463021,-0.463021 0.0496,-0.148808 0.0062,-0.241833 -0.10232,-0.251148 z m -2.081527,1.028361 c -0.06418,0 -0.190185,0.119063 -0.280086,0.264583 -0.08994,0.14552 -0.03732,0.264584 0.11679,0.264584 0.154109,0 0.280085,-0.119064 0.280085,-0.264584 0,-0.14552 -0.05259,-0.264583 -0.116789,-0.264583 z m -16.122528,0.102836 c -0.107747,0.01221 -0.396473,0.24183 -0.69505,0.559656 -0.341239,0.36322 -0.539933,0.660425 -0.441833,0.660425 0.25637,0 1.301834,-1.081473 1.171506,-1.211813 -0.0075,-0.0075 -0.01924,-0.01001 -0.03462,-0.0083 z m -1.223182,1.484664 c -0.01365,-0.01366 -0.120904,0.06644 -0.33073,0.230993 -0.254658,0.199721 -0.46302,0.408121 -0.46302,0.463021 0,0.21776 0.217117,0.07745 0.562755,-0.363285 0.164555,-0.209825 0.244652,-0.317071 0.230995,-0.330729 z m 0.589629,2.645833 c -0.14777,0 -0.336846,0.178595 -0.420648,0.396875 -0.0837,0.21829 -0.111376,0.396875 -0.06098,0.396875 0.05037,0 0.240003,-0.178585 0.421163,-0.396875 0.189849,-0.22875 0.215331,-0.396875 0.06046,-0.396875 z m -6.277136,0.07648 c -0.03831,-0.0041 -0.1675,0.112346 -0.397394,0.320394 -0.291219,0.26355 -0.529683,0.639361 -0.529683,0.835093 0,0.564607 0.193749,0.419661 0.64234,-0.479559 0.232547,-0.466149 0.333986,-0.670592 0.284737,-0.675928 z m 4.494815,2.062923 c -0.03318,-0.004 -0.08151,0.0057 -0.145211,0.02687 -0.182129,0.06071 -0.430318,0.378071 -0.551386,0.705381 -0.267693,0.72362 0.164499,0.525497 0.590661,-0.270785 0.168291,-0.31451 0.205467,-0.449447 0.105936,-0.46147 z m 65.608918,9.574609 c -0.0127,7.94e-4 -0.024,0.0059 -0.0331,0.01498 -0.0728,0.07276 0.006,0.390448 0.17519,0.706419 0.16911,0.31596 0.36696,0.515149 0.43976,0.442349 0.0728,-0.07276 -0.006,-0.390965 -0.17518,-0.706933 -0.14796,-0.276473 -0.31774,-0.463177 -0.40669,-0.456821 z m 1.36219,3.193606 c -0.0949,-0.01595 -0.16175,0.04255 -0.16175,0.158128 0,0.154109 0.11905,0.280088 0.26458,0.280088 0.14551,0 0.26459,-0.05207 0.26459,-0.116274 0,-0.06418 -0.11908,-0.190701 -0.26459,-0.280601 -0.0364,-0.02249 -0.0712,-0.03602 -0.10283,-0.04134 z m 0.79375,2.116666 c -0.0949,-0.01595 -0.16175,0.04254 -0.16175,0.158129 0,0.154109 0.11905,0.280087 0.26458,0.280087 0.14551,0 0.26459,-0.05207 0.26459,-0.116273 0,-0.06417 -0.11908,-0.190701 -0.26459,-0.280602 -0.0364,-0.02249 -0.0712,-0.03603 -0.10283,-0.04134 z m 0.46405,1.323949 c -0.0401,-0.0061 -0.068,0.09054 -0.076,0.283186 -0.0115,0.278961 0.0511,0.435166 0.13901,0.347266 0.0879,-0.08792 0.0976,-0.316461 0.0212,-0.507461 -0.0317,-0.07915 -0.0602,-0.119348 -0.0842,-0.122991 z m 1.06298,4.405934 c -0.0558,0 -0.10128,0.297656 -0.10128,0.661458 0,0.36381 0.10254,0.661459 0.22789,0.661459 0.12534,0 0.17079,-0.297649 0.10129,-0.661459 -0.0696,-0.363802 -0.17209,-0.661458 -0.2279,-0.661458 z m 0.50695,1.623671 c -0.25457,-0.0082 -0.34365,0.166357 -0.34365,0.625287 0,0.524489 0.11622,0.67813 0.46302,0.611331 0.25467,-0.04904 0.46302,-0.324271 0.46302,-0.611331 0,-0.287051 -0.20835,-0.561816 -0.46302,-0.610817 -0.0434,-0.0083 -0.083,-0.01328 -0.11937,-0.01447 z m 1.46968,1.022162 c -0.14378,0 -0.20349,0.20836 -0.13229,0.463021 0.0712,0.254659 0.20924,1.504823 0.30644,2.778125 0.0972,1.27331 0.27361,2.315104 0.39222,2.315104 0.11861,0 0.17033,-0.446489 0.11473,-0.992187 -0.0556,-0.545701 -0.17275,-1.795867 -0.26045,-2.778125 -0.0877,-0.982271 -0.27691,-1.785938 -0.42065,-1.785938 z m -1.38648,0.874882 c -0.0245,-0.0283 -0.0471,2.412476 -0.0501,5.423958 -0.004,4.209429 -0.11445,5.995107 -0.47594,7.724077 -0.25862,1.23693 -0.56878,2.784731 -0.68936,3.439583 -0.49868,2.708399 -3.62024,8.69315 -6.66729,12.782682 -0.84698,1.13674 -1.53996,2.108658 -1.53996,2.159556 0,0.0509 0.20836,0.06449 0.46302,0.03049 0.25466,-0.03404 0.9094,-0.708271 1.45469,-1.498099 2.13153,-3.087421 2.98728,-4.367581 3.26027,-4.875671 0.15636,-0.291052 0.41982,-0.767294 0.58549,-1.058333 0.90996,-1.59852 2.43861,-5.216411 2.43861,-5.771742 0,-0.35418 0.18529,-1.16468 0.41186,-1.80144 0.84747,-2.381771 1.74204,-10.397177 1.41594,-12.687599 -0.38287,-2.689299 -0.5591,-3.812063 -0.6072,-3.867462 z m -65.44665,19.35902 c -0.01172,5.29e-4 -0.02162,0.0046 -0.02946,0.01241 -0.06263,0.06263 0.03709,0.295492 0.221176,0.517281 0.472019,0.568759 0.600138,0.501391 0.216008,-0.113689 -0.155419,-0.248867 -0.325731,-0.419314 -0.407728,-0.415996 z m -3.451984,5.171262 c -0.03802,0.0035 -0.0553,0.04413 -0.0553,0.118338 0,0.0677 0.369499,0.543954 0.82114,1.058333 1.11397,1.268762 1.273844,1.185373 0.237194,-0.123505 -0.587542,-0.741862 -0.888992,-1.063701 -1.003038,-1.053166 z m 58.682204,8.196916 c -0.14552,0 -0.26458,0.119063 -0.26458,0.264584 0,0.145518 0.11906,0.264583 0.26458,0.264583 0.14552,0 0.26458,-0.119065 0.26458,-0.264583 0,-0.145521 -0.11906,-0.264584 -0.26458,-0.264584 z m -1.01751,1.058334 c -0.16807,0 -0.30541,0.119062 -0.30541,0.264583 0,0.145518 -0.17859,0.264583 -0.39687,0.264583 -0.21828,0 -0.39688,0.119063 -0.39688,0.264584 0,0.423817 0.40874,0.307035 0.92604,-0.264584 0.2716,-0.30009 0.34642,-0.529166 0.17312,-0.529166 z m -0.96842,1.838129 c -0.25166,-0.03619 -0.80732,0.185743 -1.22576,0.534334 -0.34354,0.2862 -0.55396,0.524166 -0.46716,0.529166 0.23228,0.01294 1.82677,-0.804317 1.82677,-0.936376 0,-0.0744 -0.05,-0.115059 -0.13385,-0.127124 z m -4.308259,3.208589 c -0.102823,-0.003 -0.25658,0.07678 -0.391192,0.212391 -0.25936,0.261311 -0.228767,0.291383 0.148312,0.147794 0.260919,-0.09936 0.408096,-0.247161 0.326597,-0.32866 -0.02037,-0.02037 -0.04944,-0.03051 -0.08372,-0.03153 z m -1.038696,1.41025 c -0.450625,0.03694 -1.739289,0.803116 -2.194698,1.351857 -0.47317,0.57014 -0.155027,0.484198 0.925523,-0.249082 0.520581,-0.353269 1.091547,-0.693658 1.268656,-0.75706 0.177102,-0.06337 0.238951,-0.204912 0.137462,-0.314193 -0.02529,-0.02724 -0.07257,-0.0368 -0.136943,-0.03152 z m 13.713895,7.830531 c -0.14552,0 -0.33799,0.119063 -0.42789,0.264584 -0.0899,0.145513 -0.0442,0.264583 0.10129,0.264583 0.14552,0 0.33798,-0.11907 0.42788,-0.264583 0.0899,-0.145521 0.0442,-0.264584 -0.10128,-0.264584 z m -22.835821,3.179137 c -0.246068,-0.002 -0.520914,0.11493 -0.610814,0.26045 -0.206949,0.33485 0.143309,0.33485 0.661458,0 0.342061,-0.22104 0.334928,-0.25745 -0.05064,-0.26045 z"
     style="fill:#000000;stroke-width:0.26458332" />
</svg>
